<svg width="290" height="70" viewBox="0 0 290 70" fill="none" xmlns="http://www.w3.org/2000/svg">
<path d="M287 5.21092C287 3.98986 286.01 3 284.789 3H51.1073C50.8157 3 50.5271 3.05766 50.2579 3.16967L4.36151 22.2681C3.53711 22.6111 3 23.4164 3 24.3093V64.7891C3 66.0101 3.98987 67 5.21091 67H247.382C247.682 67 247.978 66.9391 248.254 66.821L285.661 50.7759C286.473 50.4273 287 49.6281 287 48.744V5.21092Z" fill="url(#paint0_linear_1028_2612)"/>
<path d="M284.789 1.89454C286.621 1.89454 288.105 3.37934 288.105 5.21092V48.744C288.105 50.0702 287.315 51.269 286.096 51.7918L248.69 67.8369C248.277 68.0141 247.832 68.1055 247.382 68.1055H5.21091C3.37933 68.1055 1.89453 66.6207 1.89453 64.7891V24.3093C1.89453 22.9699 2.7002 21.762 3.9368 21.2474L49.8332 2.14905C50.2369 1.98104 50.6699 1.89454 51.1073 1.89454H284.789Z" stroke="#ECECEC" stroke-opacity="0.2" stroke-width="2.21092"/>
<defs>
<linearGradient id="paint0_linear_1028_2612" x1="287" y1="3" x2="-47.8264" y2="103.41" gradientUnits="userSpaceOnUse">
<stop offset="0.141734"/>
<stop offset="0.713542" stop-color="#C89539"/>
</linearGradient>
</defs>
</svg>
