<svg width="40" height="40" viewBox="0 0 40 40" fill="none" xmlns="http://www.w3.org/2000/svg">
<circle cx="20" cy="20" r="19.5" fill="url(#paint0_linear_5117_14289)" stroke="#F0B536"/>
<path d="M14.0866 29.5657L13.788 30.2537L14.0866 29.5657ZM11.3806 26.7309L10.6831 27.0067L11.3806 26.7309ZM28.6194 26.7309L29.3169 27.0067L28.6194 26.7309ZM25.9134 29.5657L26.212 30.2537L25.9134 29.5657ZM11 19.4645L11.7471 19.5309L11.7838 19.1177L11.4534 18.867L11 19.4645ZM27.5 14.9645V14.2145H27.5L27.5 14.9645ZM20.7678 13.8536L21.2981 14.3839L20.7678 13.8536ZM22.8891 11.7322L23.4194 12.2626L22.8891 11.7322ZM26.4246 11.7322L25.8943 12.2626L26.4246 11.7322ZM26.6835 14.9644L26.6835 15.7144L27.0663 15.7144L27.2909 15.4045L26.6835 14.9644ZM19.3891 13.8536L18.8588 14.3839L19.3891 13.8536ZM17.2678 11.7322L16.7375 12.2626L17.2678 11.7322ZM13.7322 11.7322L14.2626 12.2626L13.7322 11.7322ZM20 28.9645H20.75H20ZM10.9675 19.4398L10.5074 20.0321L10.9675 19.4398ZM28.9354 19.5116L28.5043 18.8979L28.9354 19.5116ZM18.5 29.2145C17.3244 29.2145 16.482 29.214 15.8177 29.1665C15.1608 29.1196 14.7346 29.0294 14.3851 28.8777L13.788 30.2537C14.3574 30.5008 14.9731 30.61 15.7107 30.6627C16.441 30.7149 17.3459 30.7145 18.5 30.7145V29.2145ZM10.25 22.1073C10.25 23.3179 10.2497 24.2616 10.2992 25.0221C10.3491 25.7887 10.452 26.4221 10.6831 27.0067L12.0781 26.4551C11.9286 26.0771 11.8412 25.619 11.796 24.9246C11.7504 24.2242 11.75 23.3375 11.75 22.1073H10.25ZM14.3851 28.8777C13.349 28.4281 12.5152 27.5607 12.0781 26.4551L10.6831 27.0067C11.261 28.4681 12.3738 29.6401 13.788 30.2537L14.3851 28.8777ZM28.25 22.1073C28.25 23.3374 28.2496 24.2242 28.204 24.9246C28.1588 25.619 28.0714 26.0771 27.9219 26.4551L29.3169 27.0067C29.548 26.4221 29.6509 25.7887 29.7008 25.0221C29.7504 24.2616 29.75 23.3178 29.75 22.1073H28.25ZM21.5 30.7145C22.6541 30.7145 23.559 30.7149 24.2893 30.6627C25.0269 30.61 25.6426 30.5008 26.212 30.2537L25.6149 28.8777C25.2654 29.0294 24.8392 29.1196 24.1823 29.1665C23.518 29.214 22.6756 29.2145 21.5 29.2145V30.7145ZM27.9219 26.4551C27.4848 27.5607 26.651 28.4281 25.6149 28.8777L26.212 30.2537C27.6262 29.6401 28.739 28.4681 29.3169 27.0067L27.9219 26.4551ZM11.75 22.1073C11.75 20.6341 11.6818 20.2657 11.7471 19.5309L10.2529 19.3981C10.1808 20.2105 10.25 20.8214 10.25 22.1073H11.75ZM27.5 15.7145C28.4665 15.7145 29.25 16.498 29.25 17.4645H30.75C30.75 15.6695 29.2949 14.2145 27.5 14.2145V15.7145ZM12.5 14.2145C10.7051 14.2145 9.25 15.6695 9.25 17.4645H10.75C10.75 16.498 11.5335 15.7145 12.5 15.7145V14.2145ZM21.2981 14.3839L23.4194 12.2626L22.3588 11.2019L20.2374 13.3232L21.2981 14.3839ZM23.4194 12.2626C24.1028 11.5791 25.2109 11.5791 25.8943 12.2626L26.955 11.2019C25.6857 9.9327 23.628 9.9327 22.3588 11.2019L23.4194 12.2626ZM20.2374 13.3232C19.9239 13.6368 19.4446 14.1471 19.2762 14.7681L20.7238 15.1608C20.7761 14.9681 20.9726 14.7093 21.2981 14.3839L20.2374 13.3232ZM25.8943 12.2626C26.5102 12.8785 26.5714 13.8408 26.0761 14.5244L27.2909 15.4045C28.2117 14.1334 28.1003 12.3472 26.955 11.2019L25.8943 12.2626ZM19.9194 13.3232L17.7981 11.2019L16.7375 12.2626L18.8588 14.3839L19.9194 13.3232ZM17.7981 11.2019C16.5289 9.93271 14.4711 9.93271 13.2019 11.2019L14.2626 12.2626C14.946 11.5792 16.054 11.5792 16.7375 12.2626L17.7981 11.2019ZM18.8588 14.3839C19.0598 14.585 19.189 14.8394 19.2762 15.1608L20.7238 14.7681C20.5903 14.2757 20.3574 13.7612 19.9194 13.3232L18.8588 14.3839ZM13.2019 11.2019C12.0566 12.3473 11.9452 14.1334 12.866 15.4045L14.0807 14.5244C13.5855 13.8408 13.6466 12.8785 14.2626 12.2626L13.2019 11.2019ZM19.25 14.9645L19.25 28.9645H20.75L20.75 14.9645H19.25ZM13.4734 15.7145L20 15.7145L20 14.2145L13.4734 14.2145L13.4734 15.7145ZM12.5 19.2145C12.095 19.2145 11.724 19.0778 11.4277 18.8476L10.5074 20.0321C11.0576 20.4595 11.7501 20.7145 12.5 20.7145V19.2145ZM11.4277 18.8476C11.0139 18.5262 10.75 18.0263 10.75 17.4645H9.25C9.25 18.5091 9.74367 19.4388 10.5074 20.0321L11.4277 18.8476ZM11.4534 18.867L11.4209 18.8424L10.5142 20.0373L10.5466 20.0619L11.4534 18.867ZM21.5 29.2145H20V30.7145H21.5V29.2145ZM20 29.2145H18.5V30.7145H20V29.2145ZM19.25 28.9645L19.25 29.9645H20.75L20.75 28.9645H19.25ZM27.5 19.2145H20V20.7145H27.5V19.2145ZM20 19.2145H12.5V20.7145H20V19.2145ZM29.25 17.4645C29.25 18.0564 28.9568 18.58 28.5043 18.8979L29.3665 20.1253C30.2017 19.5386 30.75 18.5656 30.75 17.4645H29.25ZM28.5043 18.8979C28.2202 19.0974 27.8749 19.2145 27.5 19.2145V20.7145C28.1934 20.7145 28.8381 20.4965 29.3665 20.1253L28.5043 18.8979ZM29.75 22.1073C29.75 20.7624 29.7505 20.2318 29.6826 19.4469L28.1882 19.5762C28.2495 20.2851 28.25 20.7495 28.25 22.1073H29.75ZM20 15.7145L26.4246 15.7145L26.4246 14.2145L20 14.2145L20 15.7145ZM26.4247 15.7145L26.6835 15.7144L26.6834 14.2144L26.4246 14.2145L26.4247 15.7145ZM26.4246 15.7145L27.5 15.7145L27.5 14.2145L26.4246 14.2145L26.4246 15.7145ZM13.4734 14.2145H12.5V15.7145H13.4734V14.2145ZM12.5 15.7145L16.25 15.7145L16.25 14.2145L12.5 14.2145L12.5 15.7145ZM16.25 15.7145L20 15.7145L20 14.2145L16.25 14.2145L16.25 15.7145ZM13.4734 15.7145L16.25 15.7145L16.25 14.2145L13.4734 14.2145L13.4734 15.7145ZM20 15.7145L26.6835 15.7144L26.6835 14.2144L20 14.2145L20 15.7145Z" fill="white"/>
<defs>
<linearGradient id="paint0_linear_5117_14289" x1="-5.75" y1="47.25" x2="33.75" y2="6.25" gradientUnits="userSpaceOnUse">
<stop stop-color="#4EA31B" stop-opacity="0.12"/>
<stop offset="0.998045" stop-color="#4EA31B"/>
</linearGradient>
</defs>
</svg>
