<svg width="32" height="32" viewBox="0 0 32 32" fill="none" xmlns="http://www.w3.org/2000/svg">
<circle cx="16" cy="16" r="15.5" fill="url(#paint0_linear_2436_14300)" stroke="#F0B536"/>
<path fill-rule="evenodd" clip-rule="evenodd" d="M16.0004 7.40039C16.3318 7.40039 16.6004 7.66902 16.6004 8.00039V24.0004C16.6004 24.3318 16.3318 24.6004 16.0004 24.6004C15.669 24.6004 15.4004 24.3318 15.4004 24.0004V8.00039C15.4004 7.66902 15.669 7.40039 16.0004 7.40039Z" fill="white"/>
<path fill-rule="evenodd" clip-rule="evenodd" d="M8.57072 11.7005C8.7364 11.4135 9.10336 11.3152 9.39033 11.4809L23.2467 19.4809C23.5337 19.6466 23.632 20.0135 23.4663 20.3005C23.3007 20.5875 22.9337 20.6858 22.6467 20.5201L8.79033 12.5201C8.50336 12.3544 8.40503 11.9875 8.57072 11.7005Z" fill="white"/>
<path fill-rule="evenodd" clip-rule="evenodd" d="M23.4329 11.7093C23.5986 11.9963 23.5002 12.3632 23.2132 12.5289L9.38838 20.5107C9.10141 20.6764 8.73445 20.5781 8.56877 20.2911C8.40308 20.0041 8.50141 19.6371 8.78838 19.4715L22.6132 11.4897C22.9002 11.324 23.2672 11.4223 23.4329 11.7093Z" fill="white"/>
<path fill-rule="evenodd" clip-rule="evenodd" d="M11.0116 9.83076C11.3259 9.72597 11.6657 9.89586 11.7705 10.2102L12.9705 13.8102C13.0242 13.9714 13.0071 14.1478 12.9234 14.2956C12.8397 14.4434 12.6973 14.5488 12.5315 14.5857L8.93146 15.3857C8.60798 15.4576 8.28747 15.2536 8.21559 14.9301C8.1437 14.6066 8.34766 14.2861 8.67114 14.2143L11.6217 13.5586L10.6321 10.5897C10.5273 10.2753 10.6972 9.93555 11.0116 9.83076Z" fill="white"/>
<path fill-rule="evenodd" clip-rule="evenodd" d="M8.21559 17.0706C8.28747 16.7471 8.60798 16.5431 8.93146 16.615L12.5315 17.415C12.6973 17.4519 12.8397 17.5573 12.9234 17.7051C13.0071 17.8529 13.0242 18.0293 12.9705 18.1905L11.7705 21.7905C11.6657 22.1048 11.3259 22.2747 11.0116 22.1699C10.6972 22.0651 10.5273 21.7253 10.6321 21.411L11.6217 18.4421L8.67114 17.7864C8.34766 17.7145 8.1437 17.394 8.21559 17.0706Z" fill="white"/>
<path fill-rule="evenodd" clip-rule="evenodd" d="M20.9897 9.83076C21.3041 9.93555 21.474 10.2753 21.3692 10.5897L20.3796 13.5586L23.3302 14.2143C23.6536 14.2861 23.8576 14.6066 23.7857 14.9301C23.7138 15.2536 23.3933 15.4576 23.0698 15.3857L19.4698 14.5857C19.304 14.5488 19.1616 14.4434 19.0779 14.2956C18.9942 14.1478 18.9771 13.9714 19.0308 13.8102L20.2308 10.2102C20.3356 9.89586 20.6754 9.72597 20.9897 9.83076Z" fill="white"/>
<path fill-rule="evenodd" clip-rule="evenodd" d="M23.7857 17.0706C23.8576 17.394 23.6536 17.7145 23.3302 17.7864L20.3796 18.4421L21.3692 21.411C21.474 21.7253 21.3041 22.0651 20.9897 22.1699C20.6754 22.2747 20.3356 22.1048 20.2308 21.7905L19.0308 18.1905C18.9771 18.0293 18.9942 17.8529 19.0779 17.7051C19.1616 17.5573 19.304 17.4519 19.4698 17.415L23.0698 16.615C23.3933 16.5431 23.7138 16.7471 23.7857 17.0706Z" fill="white"/>
<path fill-rule="evenodd" clip-rule="evenodd" d="M13.1757 8.77632C13.4101 8.54201 13.7899 8.54201 14.0243 8.77632L16 10.7521L17.9757 8.77632C18.2101 8.54201 18.5899 8.54201 18.8243 8.77632C19.0586 9.01064 19.0586 9.39054 18.8243 9.62485L16.4243 12.0249C16.1899 12.2592 15.8101 12.2592 15.5757 12.0249L13.1757 9.62485C12.9414 9.39054 12.9414 9.01064 13.1757 8.77632Z" fill="white"/>
<path fill-rule="evenodd" clip-rule="evenodd" d="M15.5757 19.9765C15.8101 19.7422 16.1899 19.7422 16.4243 19.9765L18.8243 22.3765C19.0586 22.6108 19.0586 22.9907 18.8243 23.225C18.5899 23.4594 18.2101 23.4594 17.9757 23.225L16 21.2493L14.0243 23.225C13.7899 23.4594 13.4101 23.4594 13.1757 23.225C12.9414 22.9907 12.9414 22.6108 13.1757 22.3765L15.5757 19.9765Z" fill="white"/>
<defs>
<linearGradient id="paint0_linear_2436_14300" x1="-4.6" y1="37.8" x2="27" y2="5" gradientUnits="userSpaceOnUse">
<stop stop-color="#171ED6" stop-opacity="0.12"/>
<stop offset="0.998045" stop-color="#171ED6"/>
</linearGradient>
</defs>
</svg>
