<svg width="28" height="22" viewBox="0 0 28 22" fill="none" xmlns="http://www.w3.org/2000/svg">
<path d="M6.92691 5.04617C6.92691 7.0764 8.57273 8.72223 10.603 8.72223C12.6332 8.72223 14.279 7.0764 14.279 5.04617C14.279 3.01594 12.6332 1.37012 10.603 1.37012C8.57273 1.37012 6.92691 3.01594 6.92691 5.04617Z" fill="#BCBCBC"/>
<path d="M17.9551 16.0743C17.9551 14.0441 16.3093 12.3983 14.279 12.3983H6.92691C4.89668 12.3983 3.25085 14.0441 3.25085 16.0743C3.25085 18.1046 4.89668 19.7504 6.92691 19.7504H14.279C16.3093 19.7504 17.9551 18.1046 17.9551 16.0743Z" fill="#BCBCBC"/>
<path d="M7.67691 5.04617C7.67691 6.66219 8.98695 7.97223 10.603 7.97223V9.47223C8.15852 9.47223 6.17691 7.49062 6.17691 5.04617H7.67691ZM10.603 7.97223C12.219 7.97223 13.529 6.66219 13.529 5.04617H15.029C15.029 7.49062 13.0474 9.47223 10.603 9.47223V7.97223ZM13.529 5.04617C13.529 3.43016 12.219 2.12012 10.603 2.12012V0.620117C13.0474 0.620117 15.029 2.60173 15.029 5.04617H13.529ZM10.603 2.12012C8.98695 2.12012 7.67691 3.43016 7.67691 5.04617H6.17691C6.17691 2.60173 8.15852 0.620117 10.603 0.620117V2.12012ZM14.279 13.1483H6.92691V11.6483H14.279V13.1483ZM6.92691 19.0004H14.279V20.5004H6.92691V19.0004ZM14.279 19.0004C15.895 19.0004 17.2051 17.6904 17.2051 16.0743H18.7051C18.7051 18.5188 16.7235 20.5004 14.279 20.5004V19.0004ZM4.00085 16.0743C4.00085 17.6904 5.31089 19.0004 6.92691 19.0004V20.5004C4.48247 20.5004 2.50085 18.5188 2.50085 16.0743H4.00085ZM6.92691 13.1483C5.31089 13.1483 4.00085 14.4583 4.00085 16.0743H2.50085C2.50085 13.6299 4.48247 11.6483 6.92691 11.6483V13.1483ZM14.279 11.6483C16.7235 11.6483 18.7051 13.6299 18.7051 16.0743H17.2051C17.2051 14.4583 15.895 13.1483 14.279 13.1483V11.6483Z" fill="#BCBCBC"/>
<path d="M15.8072 8.27952C16.0005 7.96904 16.3632 7.80328 16.7289 7.80328C18.2515 7.80328 19.4859 6.56891 19.4859 5.04624C19.4859 3.52357 18.2515 2.2892 16.7289 2.2892C16.3632 2.2892 16.0005 2.12344 15.8072 1.81296C15.7987 1.79923 15.7901 1.78554 15.7814 1.77188C15.4597 1.26396 15.6227 0.54479 16.2204 0.478991C16.3873 0.460608 16.557 0.451172 16.7289 0.451172C19.2667 0.451172 21.3239 2.50846 21.3239 5.04624C21.3239 7.58403 19.2667 9.64131 16.7289 9.64131C16.557 9.64131 16.3873 9.63188 16.2204 9.61349C15.6227 9.5477 15.4597 8.82853 15.7814 8.32061C15.7901 8.30695 15.7987 8.29325 15.8072 8.27952Z" fill="#BCBCBC"/>
<path d="M19.537 17.9944C19.6761 17.7623 19.9217 17.6061 20.1922 17.6061H20.4049C21.9276 17.6061 23.162 16.3717 23.162 14.8491C23.162 13.3264 21.9276 12.092 20.4049 12.092H20.1922C19.9217 12.092 19.6761 11.9358 19.537 11.7037C19.1975 11.1373 19.5659 10.254 20.2264 10.254H20.4049C22.9427 10.254 25 12.3113 25 14.8491C25 17.3868 22.9427 19.4441 20.4049 19.4441H20.2264C19.5659 19.4441 19.1975 18.5609 19.537 17.9944Z" fill="#BCBCBC"/>
<path d="M15.8072 8.27952C16.0005 7.96904 16.3632 7.80328 16.7289 7.80328C18.2515 7.80328 19.4859 6.56891 19.4859 5.04624C19.4859 3.52357 18.2515 2.2892 16.7289 2.2892C16.3632 2.2892 16.0005 2.12344 15.8072 1.81296C15.7987 1.79923 15.7901 1.78554 15.7814 1.77188C15.4597 1.26396 15.6227 0.54479 16.2204 0.478991C16.3873 0.460608 16.557 0.451172 16.7289 0.451172C19.2667 0.451172 21.3239 2.50846 21.3239 5.04624C21.3239 7.58403 19.2667 9.64131 16.7289 9.64131C16.557 9.64131 16.3873 9.63188 16.2204 9.61349C15.6227 9.5477 15.4597 8.82853 15.7814 8.32061C15.7901 8.30695 15.7987 8.29325 15.8072 8.27952Z" stroke="#BCBCBC"/>
<path d="M19.537 17.9944C19.6761 17.7623 19.9217 17.6061 20.1922 17.6061H20.4049C21.9276 17.6061 23.162 16.3717 23.162 14.8491C23.162 13.3264 21.9276 12.092 20.4049 12.092H20.1922C19.9217 12.092 19.6761 11.9358 19.537 11.7037C19.1975 11.1373 19.5659 10.254 20.2264 10.254H20.4049C22.9427 10.254 25 12.3113 25 14.8491C25 17.3868 22.9427 19.4441 20.4049 19.4441H20.2264C19.5659 19.4441 19.1975 18.5609 19.537 17.9944Z" stroke="#BCBCBC"/>
</svg>
