<svg width="24" height="25" viewBox="0 0 24 25" fill="none" xmlns="http://www.w3.org/2000/svg">
<path d="M2.55469 5.59766C2.55469 6.26429 3.09511 6.80469 3.76172 6.80469H19.9336C20.6002 6.80469 21.1406 6.26429 21.1406 5.59766C21.1406 4.93102 20.6002 4.39062 19.9336 4.39062H3.76172C3.09511 4.39062 2.55469 4.93102 2.55469 5.59766ZM6.46875 12.5352C6.46875 13.2018 7.00917 13.7422 7.67578 13.7422H19.9336C20.6002 13.7422 21.1406 13.2018 21.1406 12.5352C21.1406 11.8685 20.6002 11.3281 19.9336 11.3281H7.67578C7.00917 11.3281 6.46875 11.8685 6.46875 12.5352ZM12.9609 19.4492C12.9609 20.1158 13.5013 20.6562 14.168 20.6562H19.9336C20.6002 20.6562 21.1406 20.1158 21.1406 19.4492C21.1406 18.7826 20.6002 18.2422 19.9336 18.2422H14.168C13.5013 18.2422 12.9609 18.7826 12.9609 19.4492Z" fill="white"/>
</svg>
