<svg width="50" height="50" viewBox="0 0 50 50" fill="none" xmlns="http://www.w3.org/2000/svg">
<circle cx="25" cy="25" r="24.375" fill="url(#paint0_linear_1_4363)" stroke="#FF1F00" stroke-width="1.25"/>
<path fill-rule="evenodd" clip-rule="evenodd" d="M13.817 17.0199C13.4495 17.3096 13.4375 17.4789 13.4375 17.5C13.4375 17.5211 13.4495 17.6904 13.817 17.9801C14.174 18.2614 14.7487 18.5558 15.5423 18.8203C17.1199 19.3462 19.3589 19.6875 21.875 19.6875C24.3911 19.6875 26.6301 19.3462 28.2077 18.8203C29.0013 18.5558 29.576 18.2614 29.933 17.9801C30.3005 17.6904 30.3125 17.5211 30.3125 17.5C30.3125 17.4789 30.3005 17.3096 29.933 17.0199C29.576 16.7386 29.0013 16.4442 28.2077 16.1797C26.6301 15.6538 24.3911 15.3125 21.875 15.3125C19.3589 15.3125 17.1199 15.6538 15.5423 16.1797C14.7487 16.4442 14.174 16.7386 13.817 17.0199ZM30.3125 19.9593V23.125C30.3125 23.6428 30.7322 24.0625 31.25 24.0625C31.7678 24.0625 32.1875 23.6428 32.1875 23.125V17.5C32.1875 16.6582 31.6748 16.0054 31.0936 15.5473C30.5017 15.0809 29.7035 14.7019 28.8006 14.4009C26.9851 13.7957 24.5366 13.4375 21.875 13.4375C19.2134 13.4375 16.7649 13.7957 14.9494 14.4009C14.0465 14.7019 13.2483 15.0809 12.6564 15.5473C12.0752 16.0054 11.5625 16.6582 11.5625 17.5V32.5C11.5625 33.3418 12.0752 33.9946 12.6564 34.4527C13.2483 34.9191 14.0465 35.2981 14.9494 35.5991C16.7649 36.2043 19.2134 36.5625 21.875 36.5625C24.3687 36.5625 26.6719 36.2481 28.4426 35.7128C28.9382 35.5629 29.2185 35.0397 29.0687 34.5441C28.9188 34.0484 28.3956 33.7681 27.9 33.918C26.3426 34.3889 24.2283 34.6875 21.875 34.6875C19.3589 34.6875 17.1199 34.3462 15.5423 33.8203C14.7487 33.5558 14.174 33.2614 13.817 32.9801C13.4495 32.6904 13.4375 32.5211 13.4375 32.5V29.9593C13.8872 30.203 14.3988 30.4156 14.9494 30.5991C16.7649 31.2043 19.2134 31.5625 21.875 31.5625C23.0407 31.5625 24.1612 31.4938 25.203 31.3671C25.717 31.3045 26.0829 30.8372 26.0204 30.3232C25.9579 29.8092 25.4905 29.4433 24.9765 29.5058C24.0129 29.623 22.9681 29.6875 21.875 29.6875C19.3589 29.6875 17.1199 29.3462 15.5423 28.8203C14.7487 28.5558 14.174 28.2614 13.817 27.9801C13.4495 27.6904 13.4375 27.5211 13.4375 27.5V24.9593C13.8872 25.203 14.3988 25.4156 14.9494 25.5991C16.7649 26.2043 19.2134 26.5625 21.875 26.5625C23.6515 26.5625 25.3261 26.403 26.7783 26.1201C27.2865 26.0211 27.6183 25.5288 27.5193 25.0206C27.4203 24.5124 26.928 24.1807 26.4198 24.2797C25.0976 24.5373 23.5439 24.6875 21.875 24.6875C19.3589 24.6875 17.1199 24.3462 15.5423 23.8203C14.7487 23.5558 14.174 23.2614 13.817 22.9801C13.4495 22.6904 13.4375 22.5211 13.4375 22.5V19.9593C13.8872 20.203 14.3988 20.4156 14.9494 20.5991C16.7649 21.2043 19.2134 21.5625 21.875 21.5625C24.5366 21.5625 26.9851 21.2043 28.8006 20.5991C29.3512 20.4156 29.8628 20.203 30.3125 19.9593Z" fill="white"/>
<path fill-rule="evenodd" clip-rule="evenodd" d="M28.7121 26.8371C29.0782 26.471 29.6718 26.471 30.0379 26.8371L31.25 28.0492L32.4621 26.8371C32.8282 26.471 33.4218 26.471 33.7879 26.8371C34.154 27.2032 34.154 27.7968 33.7879 28.1629L32.5758 29.375L33.7879 30.5871C34.154 30.9532 34.154 31.5468 33.7879 31.9129C33.4218 32.279 32.8282 32.279 32.4621 31.9129L31.25 30.7008L30.0379 31.9129C29.6718 32.279 29.0782 32.279 28.7121 31.9129C28.346 31.5468 28.346 30.9532 28.7121 30.5871L29.9242 29.375L28.7121 28.1629C28.346 27.7968 28.346 27.2032 28.7121 26.8371Z" fill="#FF1F00"/>
<path fill-rule="evenodd" clip-rule="evenodd" d="M31.2285 24.0977C28.3215 24.0977 25.9648 26.4543 25.9648 29.3613C25.9648 32.2684 28.3215 34.625 31.2285 34.625C34.1356 34.625 36.4922 32.2684 36.4922 29.3613C36.4922 26.4543 34.1356 24.0977 31.2285 24.0977ZM24.0898 29.3613C24.0898 25.4187 27.2859 22.2227 31.2285 22.2227C35.1711 22.2227 38.3672 25.4187 38.3672 29.3613C38.3672 33.3039 35.1711 36.5 31.2285 36.5C27.2859 36.5 24.0898 33.3039 24.0898 29.3613Z" fill="#FF1F00"/>
<defs>
<linearGradient id="paint0_linear_1_4363" x1="-7.1875" y1="59.0625" x2="42.1875" y2="7.8125" gradientUnits="userSpaceOnUse">
<stop stop-color="#F0B536" stop-opacity="0.12"/>
<stop offset="0.998045" stop-color="#F0B536"/>
</linearGradient>
</defs>
</svg>
