<svg width="20" height="22" viewBox="0 0 20 22" fill="none" xmlns="http://www.w3.org/2000/svg">
<g clip-path="url(#clip0_2360_3870)">
<path d="M2.75 11.4945C2.75 11.0803 2.41421 10.7445 2 10.7445C1.58579 10.7445 1.25 11.0803 1.25 11.4945H2.75ZM18.5127 11.4945C18.5127 11.9087 18.8485 12.2445 19.2627 12.2445C19.6769 12.2445 20.0127 11.9087 20.0127 11.4945H18.5127ZM4.07188 5.88411L4.61188 6.40459L4.62723 6.38867L4.64162 6.37187L4.07188 5.88411ZM17.1908 17.1049L17.7606 17.5926L17.7698 17.5818L17.7787 17.5706L17.1908 17.1049ZM3.83987 2.00335C3.84172 1.58914 3.50743 1.25186 3.09322 1.25001C2.67901 1.24816 2.34173 1.58244 2.33989 1.99665L3.83987 2.00335ZM3.08223 3.71394L2.33224 3.71059V3.71059L3.08223 3.71394ZM6.25857 6.89028L6.26192 7.64027L6.25857 6.89028ZM7.97586 7.63263C8.39007 7.63078 8.72435 7.2935 8.72251 6.87929C8.72066 6.46508 8.38338 6.13079 7.96917 6.13264L7.97586 7.63263ZM3.43486 6.23167L2.84174 6.69069L2.84174 6.69069L3.43486 6.23167ZM3.74084 6.53765L3.28182 7.13078L3.28182 7.13078L3.74084 6.53765ZM17.3534 20.9162C17.3516 21.3305 17.6859 21.6677 18.1001 21.6696C18.5143 21.6714 18.8516 21.3371 18.8534 20.9229L17.3534 20.9162ZM18.1111 19.2056L18.861 19.209L18.1111 19.2056ZM14.9347 16.0293L14.9314 15.2793L14.9347 16.0293ZM13.2174 15.287C12.8032 15.2888 12.4689 15.6261 12.4708 16.0403C12.4726 16.4545 12.8099 16.7888 13.2241 16.7869L13.2174 15.287ZM17.7584 16.6879L18.3516 16.2289L18.3516 16.2289L17.7584 16.6879ZM17.4524 16.3819L17.9115 15.7888H17.9115L17.4524 16.3819ZM3.57912 6.39535L3.04922 6.92611L3.57912 6.39535ZM10.6314 19.3759C6.27861 19.3759 2.75 15.8473 2.75 11.4945H1.25C1.25 16.6757 5.45018 20.8759 10.6314 20.8759V19.3759ZM10.6314 3.61314C14.9841 3.61314 18.5127 7.14174 18.5127 11.4945H20.0127C20.0127 6.31331 15.8125 2.11314 10.6314 2.11314V3.61314ZM4.64162 6.37187C6.08827 4.68208 8.23458 3.61314 10.6314 3.61314V2.11314C7.77802 2.11314 5.22162 3.3879 3.50215 5.39636L4.64162 6.37187ZM16.6211 16.6171C15.1745 18.3069 13.0281 19.3759 10.6314 19.3759V20.8759C13.4847 20.8759 16.0411 19.6011 17.7606 17.5926L16.6211 16.6171ZM2.33989 1.99665L2.33224 3.71059L3.83222 3.71729L3.83987 2.00335L2.33989 1.99665ZM6.26192 7.64027L7.97586 7.63263L7.96917 6.13264L6.25523 6.14029L6.26192 7.64027ZM2.33224 3.71059C2.32927 4.37637 2.32562 4.93909 2.37503 5.39148C2.42608 5.85897 2.54145 6.30267 2.84174 6.69069L4.02799 5.77265C3.9665 5.69319 3.9025 5.56145 3.86616 5.22864C3.82817 4.88075 3.8291 4.41834 3.83222 3.71729L2.33224 3.71059ZM6.25523 6.14029C5.55417 6.14342 5.09176 6.14434 4.74387 6.10635C4.41106 6.07001 4.27932 6.00601 4.19986 5.94452L3.28182 7.13078C3.66984 7.43106 4.11355 7.54644 4.58103 7.59749C5.03342 7.64689 5.59614 7.64324 6.26192 7.64027L6.25523 6.14029ZM18.8534 20.9229L18.861 19.209L17.3611 19.2023L17.3534 20.9162L18.8534 20.9229ZM14.9314 15.2793L13.2174 15.287L13.2241 16.7869L14.9381 16.7793L14.9314 15.2793ZM18.861 19.209C18.864 18.5432 18.8677 17.9805 18.8183 17.5281C18.7672 17.0606 18.6518 16.6169 18.3516 16.2289L17.1653 17.1469C17.2268 17.2264 17.2908 17.3581 17.3271 17.6909C17.3651 18.0388 17.3642 18.5012 17.3611 19.2023L18.861 19.209ZM14.9381 16.7793C15.6391 16.7762 16.1015 16.7752 16.4494 16.8132C16.7822 16.8496 16.914 16.9136 16.9934 16.9751L17.9115 15.7888C17.5234 15.4885 17.0797 15.3732 16.6123 15.3221C16.1599 15.2727 15.5971 15.2763 14.9314 15.2793L14.9381 16.7793ZM2.84174 6.69069C2.90588 6.77358 2.9752 6.8522 3.04922 6.92611L4.10902 5.86459C4.08012 5.83573 4.05305 5.80503 4.02799 5.77265L2.84174 6.69069ZM3.04922 6.92611C3.12231 6.99908 3.19999 7.06744 3.28182 7.13078L4.19986 5.94452C4.16789 5.91978 4.13756 5.89308 4.10902 5.86459L3.04922 6.92611ZM3.53189 5.36363L3.03912 5.87487L4.11912 6.91583L4.61188 6.40459L3.53189 5.36363ZM18.3516 16.2289C18.2959 16.157 18.2364 16.0884 18.1733 16.0232L17.0957 17.0666C17.1203 17.092 17.1436 17.1189 17.1653 17.1469L18.3516 16.2289ZM18.1733 16.0232C18.0918 15.939 18.0043 15.8607 17.9115 15.7888L16.9934 16.9751C17.0297 17.0031 17.0639 17.0337 17.0957 17.0666L18.1733 16.0232ZM17.7787 17.5706L18.2224 17.0107L17.0467 16.0791L16.603 16.6391L17.7787 17.5706Z" fill="#BCBCBC"/>
</g>
<defs>
<clipPath id="clip0_2360_3870">
<rect width="20" height="22" fill="white"/>
</clipPath>
</defs>
</svg>
