<svg width="559" height="2006" viewBox="0 0 559 2006" fill="none" xmlns="http://www.w3.org/2000/svg">
<path d="M652.5 516H475.5L605.596 547L652.5 516Z" fill="url(#paint0_linear_180_11140)"/>
<path d="M506.752 163.984L653 15V25.7126L546.778 215.96L414 260L506.752 163.984Z" fill="url(#paint1_linear_180_11140)"/>
<path d="M546.5 216L653 25V370L546.5 216Z" fill="url(#paint2_linear_180_11140)"/>
<path d="M547 214L414 260L475.153 516L547 214Z" fill="url(#paint3_linear_180_11140)"/>
<path d="M653 392.044L475 516L547 214L653 360.805V392.044Z" fill="url(#paint4_linear_180_11140)"/>
<path d="M652.341 516H475L653 392L652.341 516Z" fill="#171717"/>
<path d="M475 516L547 214" stroke="url(#paint5_radial_180_11140)" stroke-width="3"/>
<path d="M412.5 259.5L652 13.5" stroke="url(#paint6_radial_180_11140)" stroke-width="3"/>
<path d="M478 516L652 388" stroke="url(#paint7_radial_180_11140)" stroke-width="3"/>
<path d="M422 659.5L475.5 516L606.5 547L422 659.5Z" fill="url(#paint8_linear_180_11140)"/>
<path d="M652.5 654L422.5 659L606 547L652.5 654Z" fill="url(#paint9_linear_180_11140)"/>
<path d="M652.5 721.5L422.5 659L652.5 654V721.5Z" fill="url(#paint10_linear_180_11140)"/>
<path d="M423.5 660.5L605 548" stroke="url(#paint11_radial_180_11140)" stroke-width="3"/>
<path d="M422.002 658.006L666 655.992" stroke="url(#paint12_radial_180_11140)" stroke-width="3"/>
<path d="M652.5 1237H475.5L605.596 1268L652.5 1237Z" fill="url(#paint13_linear_180_11140)"/>
<path d="M506.752 884.984L653 736V746.713L546.778 936.96L414 981L506.752 884.984Z" fill="url(#paint14_linear_180_11140)"/>
<path d="M546.5 937L653 746V1091L546.5 937Z" fill="url(#paint15_linear_180_11140)"/>
<path d="M547 935L414 981L475.153 1237L547 935Z" fill="url(#paint16_linear_180_11140)"/>
<path d="M653 1113.04L475 1237L547 935L653 1081.8V1113.04Z" fill="url(#paint17_linear_180_11140)"/>
<path d="M652.341 1237H475L653 1113L652.341 1237Z" fill="#171717"/>
<path d="M475 1237L547 935" stroke="url(#paint18_radial_180_11140)" stroke-width="3"/>
<path d="M412.5 980.5L652 734.5" stroke="url(#paint19_radial_180_11140)" stroke-width="3"/>
<path d="M478 1237L652 1109" stroke="url(#paint20_radial_180_11140)" stroke-width="3"/>
<path d="M422 1380.5L475.5 1237L606.5 1268L422 1380.5Z" fill="url(#paint21_linear_180_11140)"/>
<path d="M652.5 1375L422.5 1380L606 1268L652.5 1375Z" fill="url(#paint22_linear_180_11140)"/>
<path d="M652.5 1442.5L422.5 1380L652.5 1375V1442.5Z" fill="url(#paint23_linear_180_11140)"/>
<path d="M423.5 1381.5L605 1269" stroke="url(#paint24_radial_180_11140)" stroke-width="3"/>
<path d="M422.002 1379.01L666 1376.99" stroke="url(#paint25_radial_180_11140)" stroke-width="3"/>
<path d="M652.5 1958H475.5L605.596 1989L652.5 1958Z" fill="url(#paint26_linear_180_11140)"/>
<path d="M506.752 1605.98L653 1457V1467.71L546.778 1657.96L414 1702L506.752 1605.98Z" fill="url(#paint27_linear_180_11140)"/>
<path d="M546.5 1658L653 1467V1812L546.5 1658Z" fill="url(#paint28_linear_180_11140)"/>
<path d="M547 1656L414 1702L475.153 1958L547 1656Z" fill="url(#paint29_linear_180_11140)"/>
<path d="M653 1834.04L475 1958L547 1656L653 1802.8V1834.04Z" fill="url(#paint30_linear_180_11140)"/>
<path d="M652.341 1958H475L653 1834L652.341 1958Z" fill="#171717"/>
<path d="M475 1958L547 1656" stroke="url(#paint31_radial_180_11140)" stroke-width="3"/>
<path d="M412.5 1701.5L652 1455.5" stroke="url(#paint32_radial_180_11140)" stroke-width="3"/>
<path d="M478 1958L652 1830" stroke="url(#paint33_radial_180_11140)" stroke-width="3"/>
<path d="M422 2101.5L475.5 1958L606.5 1989L422 2101.5Z" fill="url(#paint34_linear_180_11140)"/>
<path d="M652.5 2096L422.5 2101L606 1989L652.5 2096Z" fill="url(#paint35_linear_180_11140)"/>
<path d="M423.5 2102.5L605 1990" stroke="url(#paint36_radial_180_11140)" stroke-width="3"/>
<defs>
<linearGradient id="paint0_linear_180_11140" x1="590" y1="516" x2="589.48" y2="647.701" gradientUnits="userSpaceOnUse">
<stop stop-color="#171717"/>
<stop offset="0.705083" stop-color="#202020"/>
<stop offset="1" stop-color="#292929"/>
</linearGradient>
<linearGradient id="paint1_linear_180_11140" x1="534" y1="178" x2="644.16" y2="347.325" gradientUnits="userSpaceOnUse">
<stop stop-color="#171717"/>
<stop offset="0.705083" stop-color="#202020"/>
<stop offset="1" stop-color="#292929"/>
</linearGradient>
<linearGradient id="paint2_linear_180_11140" x1="610" y1="208.5" x2="445.064" y2="292.474" gradientUnits="userSpaceOnUse">
<stop stop-color="#171717"/>
<stop offset="0.705083" stop-color="#202020"/>
<stop offset="1" stop-color="#292929"/>
</linearGradient>
<linearGradient id="paint3_linear_180_11140" x1="471" y1="355" x2="424.22" y2="572.275" gradientUnits="userSpaceOnUse">
<stop stop-color="#171717"/>
<stop offset="0.705083" stop-color="#202020"/>
<stop offset="1" stop-color="#292929"/>
</linearGradient>
<linearGradient id="paint4_linear_180_11140" x1="551.664" y1="392.963" x2="448" y2="565" gradientUnits="userSpaceOnUse">
<stop stop-color="#171717"/>
<stop offset="0.705083" stop-color="#202020"/>
<stop offset="1" stop-color="#292929"/>
</linearGradient>
<radialGradient id="paint5_radial_180_11140" cx="0" cy="0" r="1" gradientUnits="userSpaceOnUse" gradientTransform="translate(508.516 375.798) rotate(103.445) scale(143.811 65.3292)">
<stop stop-color="#EFC978" stop-opacity="0.871875"/>
<stop offset="0.388542" stop-color="#F0B536"/>
<stop offset="1" stop-color="#F0B536" stop-opacity="0"/>
</radialGradient>
<radialGradient id="paint6_radial_180_11140" cx="0" cy="0" r="1" gradientUnits="userSpaceOnUse" gradientTransform="translate(525.254 142.546) rotate(133.448) scale(161.399 161.875)">
<stop stop-color="#EFC978" stop-opacity="0.871875"/>
<stop offset="0.388542" stop-color="#F0B536"/>
<stop offset="1" stop-color="#F0B536" stop-opacity="0"/>
</radialGradient>
<radialGradient id="paint7_radial_180_11140" cx="0" cy="0" r="1" gradientUnits="userSpaceOnUse" gradientTransform="translate(558.997 456.576) rotate(143.735) scale(100.22 96.0208)">
<stop stop-color="#EFC978" stop-opacity="0.871875"/>
<stop offset="0.388542" stop-color="#F0B536"/>
<stop offset="1" stop-color="#F0B536" stop-opacity="0"/>
</radialGradient>
<linearGradient id="paint8_linear_180_11140" x1="471.5" y1="597" x2="475.29" y2="732.613" gradientUnits="userSpaceOnUse">
<stop stop-color="#171717"/>
<stop offset="0.723622" stop-color="#202020"/>
<stop offset="1" stop-color="#292929"/>
</linearGradient>
<linearGradient id="paint9_linear_180_11140" x1="525" y1="635" x2="351.5" y2="689" gradientUnits="userSpaceOnUse">
<stop stop-color="#171717"/>
<stop offset="0.548834" stop-color="#202020"/>
<stop offset="1" stop-color="#292929"/>
</linearGradient>
<linearGradient id="paint10_linear_180_11140" x1="521.561" y1="694" x2="516.156" y2="745.85" gradientUnits="userSpaceOnUse">
<stop stop-color="#171717"/>
<stop offset="0.705083" stop-color="#202020"/>
<stop offset="1" stop-color="#292929"/>
</linearGradient>
<radialGradient id="paint11_radial_180_11140" cx="0" cy="0" r="1" gradientUnits="userSpaceOnUse" gradientTransform="translate(507.721 607.469) rotate(148.69) scale(98.9281 88.234)">
<stop stop-color="#EFC978" stop-opacity="0.871875"/>
<stop offset="0.388542" stop-color="#F0B536"/>
<stop offset="1" stop-color="#F0B536" stop-opacity="0"/>
</radialGradient>
<radialGradient id="paint12_radial_180_11140" cx="0" cy="0" r="1" gradientUnits="userSpaceOnUse" gradientTransform="translate(536.681 657.238) rotate(178.351) scale(112.849 4.65098)">
<stop stop-color="#EFC978" stop-opacity="0.871875"/>
<stop offset="0.388542" stop-color="#F0B536"/>
<stop offset="0.684759" stop-color="#F0B536" stop-opacity="0"/>
</radialGradient>
<linearGradient id="paint13_linear_180_11140" x1="590" y1="1237" x2="589.48" y2="1368.7" gradientUnits="userSpaceOnUse">
<stop stop-color="#171717"/>
<stop offset="0.705083" stop-color="#202020"/>
<stop offset="1" stop-color="#292929"/>
</linearGradient>
<linearGradient id="paint14_linear_180_11140" x1="534" y1="899" x2="644.16" y2="1068.32" gradientUnits="userSpaceOnUse">
<stop stop-color="#171717"/>
<stop offset="0.705083" stop-color="#202020"/>
<stop offset="1" stop-color="#292929"/>
</linearGradient>
<linearGradient id="paint15_linear_180_11140" x1="610" y1="929.5" x2="445.064" y2="1013.47" gradientUnits="userSpaceOnUse">
<stop stop-color="#171717"/>
<stop offset="0.705083" stop-color="#202020"/>
<stop offset="1" stop-color="#292929"/>
</linearGradient>
<linearGradient id="paint16_linear_180_11140" x1="471" y1="1076" x2="424.22" y2="1293.28" gradientUnits="userSpaceOnUse">
<stop stop-color="#171717"/>
<stop offset="0.705083" stop-color="#202020"/>
<stop offset="1" stop-color="#292929"/>
</linearGradient>
<linearGradient id="paint17_linear_180_11140" x1="551.664" y1="1113.96" x2="448" y2="1286" gradientUnits="userSpaceOnUse">
<stop stop-color="#171717"/>
<stop offset="0.705083" stop-color="#202020"/>
<stop offset="1" stop-color="#292929"/>
</linearGradient>
<radialGradient id="paint18_radial_180_11140" cx="0" cy="0" r="1" gradientUnits="userSpaceOnUse" gradientTransform="translate(508.516 1096.8) rotate(103.445) scale(143.811 65.3292)">
<stop stop-color="#EFC978" stop-opacity="0.871875"/>
<stop offset="0.388542" stop-color="#F0B536"/>
<stop offset="1" stop-color="#F0B536" stop-opacity="0"/>
</radialGradient>
<radialGradient id="paint19_radial_180_11140" cx="0" cy="0" r="1" gradientUnits="userSpaceOnUse" gradientTransform="translate(525.254 863.546) rotate(133.448) scale(161.399 161.875)">
<stop stop-color="#EFC978" stop-opacity="0.871875"/>
<stop offset="0.388542" stop-color="#F0B536"/>
<stop offset="1" stop-color="#F0B536" stop-opacity="0"/>
</radialGradient>
<radialGradient id="paint20_radial_180_11140" cx="0" cy="0" r="1" gradientUnits="userSpaceOnUse" gradientTransform="translate(558.997 1177.58) rotate(143.735) scale(100.22 96.0208)">
<stop stop-color="#EFC978" stop-opacity="0.871875"/>
<stop offset="0.388542" stop-color="#F0B536"/>
<stop offset="1" stop-color="#F0B536" stop-opacity="0"/>
</radialGradient>
<linearGradient id="paint21_linear_180_11140" x1="471.5" y1="1318" x2="475.29" y2="1453.61" gradientUnits="userSpaceOnUse">
<stop stop-color="#171717"/>
<stop offset="0.723622" stop-color="#202020"/>
<stop offset="1" stop-color="#292929"/>
</linearGradient>
<linearGradient id="paint22_linear_180_11140" x1="525" y1="1356" x2="351.5" y2="1410" gradientUnits="userSpaceOnUse">
<stop stop-color="#171717"/>
<stop offset="0.548834" stop-color="#202020"/>
<stop offset="1" stop-color="#292929"/>
</linearGradient>
<linearGradient id="paint23_linear_180_11140" x1="521.561" y1="1415" x2="516.156" y2="1466.85" gradientUnits="userSpaceOnUse">
<stop stop-color="#171717"/>
<stop offset="0.705083" stop-color="#202020"/>
<stop offset="1" stop-color="#292929"/>
</linearGradient>
<radialGradient id="paint24_radial_180_11140" cx="0" cy="0" r="1" gradientUnits="userSpaceOnUse" gradientTransform="translate(507.721 1328.47) rotate(148.69) scale(98.9281 88.234)">
<stop stop-color="#EFC978" stop-opacity="0.871875"/>
<stop offset="0.388542" stop-color="#F0B536"/>
<stop offset="1" stop-color="#F0B536" stop-opacity="0"/>
</radialGradient>
<radialGradient id="paint25_radial_180_11140" cx="0" cy="0" r="1" gradientUnits="userSpaceOnUse" gradientTransform="translate(536.681 1378.24) rotate(178.351) scale(112.849 4.65098)">
<stop stop-color="#EFC978" stop-opacity="0.871875"/>
<stop offset="0.388542" stop-color="#F0B536"/>
<stop offset="0.684759" stop-color="#F0B536" stop-opacity="0"/>
</radialGradient>
<linearGradient id="paint26_linear_180_11140" x1="590" y1="1958" x2="589.48" y2="2089.7" gradientUnits="userSpaceOnUse">
<stop stop-color="#171717"/>
<stop offset="0.705083" stop-color="#202020"/>
<stop offset="1" stop-color="#292929"/>
</linearGradient>
<linearGradient id="paint27_linear_180_11140" x1="534" y1="1620" x2="644.16" y2="1789.32" gradientUnits="userSpaceOnUse">
<stop stop-color="#171717"/>
<stop offset="0.705083" stop-color="#202020"/>
<stop offset="1" stop-color="#292929"/>
</linearGradient>
<linearGradient id="paint28_linear_180_11140" x1="610" y1="1650.5" x2="445.064" y2="1734.47" gradientUnits="userSpaceOnUse">
<stop stop-color="#171717"/>
<stop offset="0.705083" stop-color="#202020"/>
<stop offset="1" stop-color="#292929"/>
</linearGradient>
<linearGradient id="paint29_linear_180_11140" x1="471" y1="1797" x2="424.22" y2="2014.28" gradientUnits="userSpaceOnUse">
<stop stop-color="#171717"/>
<stop offset="0.705083" stop-color="#202020"/>
<stop offset="1" stop-color="#292929"/>
</linearGradient>
<linearGradient id="paint30_linear_180_11140" x1="551.664" y1="1834.96" x2="448" y2="2007" gradientUnits="userSpaceOnUse">
<stop stop-color="#171717"/>
<stop offset="0.705083" stop-color="#202020"/>
<stop offset="1" stop-color="#292929"/>
</linearGradient>
<radialGradient id="paint31_radial_180_11140" cx="0" cy="0" r="1" gradientUnits="userSpaceOnUse" gradientTransform="translate(508.516 1817.8) rotate(103.445) scale(143.811 65.3292)">
<stop stop-color="#EFC978" stop-opacity="0.871875"/>
<stop offset="0.388542" stop-color="#F0B536"/>
<stop offset="1" stop-color="#F0B536" stop-opacity="0"/>
</radialGradient>
<radialGradient id="paint32_radial_180_11140" cx="0" cy="0" r="1" gradientUnits="userSpaceOnUse" gradientTransform="translate(525.254 1584.55) rotate(133.448) scale(161.399 161.875)">
<stop stop-color="#EFC978" stop-opacity="0.871875"/>
<stop offset="0.388542" stop-color="#F0B536"/>
<stop offset="1" stop-color="#F0B536" stop-opacity="0"/>
</radialGradient>
<radialGradient id="paint33_radial_180_11140" cx="0" cy="0" r="1" gradientUnits="userSpaceOnUse" gradientTransform="translate(558.997 1898.58) rotate(143.735) scale(100.22 96.0208)">
<stop stop-color="#EFC978" stop-opacity="0.871875"/>
<stop offset="0.388542" stop-color="#F0B536"/>
<stop offset="1" stop-color="#F0B536" stop-opacity="0"/>
</radialGradient>
<linearGradient id="paint34_linear_180_11140" x1="471.5" y1="2039" x2="475.29" y2="2174.61" gradientUnits="userSpaceOnUse">
<stop stop-color="#171717"/>
<stop offset="0.723622" stop-color="#202020"/>
<stop offset="1" stop-color="#292929"/>
</linearGradient>
<linearGradient id="paint35_linear_180_11140" x1="525" y1="2077" x2="351.5" y2="2131" gradientUnits="userSpaceOnUse">
<stop stop-color="#171717"/>
<stop offset="0.548834" stop-color="#202020"/>
<stop offset="1" stop-color="#292929"/>
</linearGradient>
<radialGradient id="paint36_radial_180_11140" cx="0" cy="0" r="1" gradientUnits="userSpaceOnUse" gradientTransform="translate(507.721 2049.47) rotate(148.69) scale(98.9281 88.234)">
<stop stop-color="#EFC978" stop-opacity="0.871875"/>
<stop offset="0.388542" stop-color="#F0B536"/>
<stop offset="1" stop-color="#F0B536" stop-opacity="0"/>
</radialGradient>
</defs>
</svg>
