<svg width="50" height="50" viewBox="0 0 50 50" fill="none" xmlns="http://www.w3.org/2000/svg">
<circle cx="25" cy="25" r="24.5" fill="url(#paint0_linear_1_4360)" stroke="url(#paint1_angular_1_4360)"/>
<path fill-rule="evenodd" clip-rule="evenodd" d="M18.0102 18.0644C17.6863 18.3197 17.6602 18.4811 17.6602 18.5252C17.6602 18.5692 17.6863 18.7306 18.0102 18.9859C18.3257 19.2345 18.8287 19.4913 19.5172 19.7207C20.8862 20.1771 22.8251 20.4722 25.0013 20.4722C27.1774 20.4722 29.1164 20.1771 30.4854 19.7207C31.1738 19.4913 31.6768 19.2345 31.9923 18.9859C32.3163 18.7306 32.3424 18.5692 32.3424 18.5252C32.3424 18.4811 32.3163 18.3197 31.9923 18.0644C31.6768 17.8158 31.1738 17.5591 30.4854 17.3296C29.1164 16.8732 27.1774 16.5781 25.0013 16.5781C22.8251 16.5781 20.8862 16.8732 19.5172 17.3296C18.8287 17.5591 18.3257 17.8158 18.0102 18.0644ZM32.3424 20.5475C31.9379 20.7758 31.4691 20.974 30.9597 21.1438C29.4003 21.6636 27.2937 21.9722 25.0013 21.9722C22.7088 21.9722 20.6022 21.6636 19.0428 21.1438C18.5335 20.974 18.0646 20.7758 17.6602 20.5475V22.8404C17.6602 22.8845 17.6863 23.0459 18.0102 23.3012C18.3257 23.5498 18.8287 23.8065 19.5172 24.036C20.8862 24.4923 22.8251 24.7875 25.0013 24.7875C27.4174 24.7875 29.3671 24.6517 30.6936 24.3359C31.3609 24.177 31.8052 23.987 32.0673 23.7948C32.3061 23.6197 32.3424 23.4874 32.3424 23.3798V20.5475ZM32.3424 25.361C31.9562 25.5415 31.5147 25.6823 31.041 25.7951C29.5356 26.1535 27.4398 26.2875 25.0013 26.2875C22.7088 26.2875 20.6022 25.9788 19.0428 25.459C18.5335 25.2892 18.0646 25.0911 17.6602 24.8627V27.1557C17.6602 27.1998 17.6863 27.3611 18.0102 27.6164C18.3257 27.8651 18.8287 28.1218 19.5172 28.3513C20.8862 28.8076 22.8251 29.1027 25.0013 29.1027C27.034 29.1027 28.9772 28.8388 30.3869 28.3956C31.0961 28.1726 31.6252 27.9181 31.9612 27.6627C32.303 27.4029 32.3424 27.2272 32.3424 27.1557V25.361ZM33.8424 18.5252C33.8424 17.8245 33.4157 17.2763 32.9208 16.8863C32.4174 16.4896 31.7355 16.1651 30.9597 15.9066C29.4003 15.3868 27.2937 15.0781 25.0013 15.0781C22.7088 15.0781 20.6022 15.3868 19.0428 15.9066C18.267 16.1651 17.5851 16.4896 17.0818 16.8863C16.5869 17.2763 16.1602 17.8245 16.1602 18.5252V31.4709C16.1602 32.1716 16.5869 32.7198 17.0818 33.1098C17.5851 33.5065 18.267 33.8309 19.0428 34.0895C20.6022 34.6093 22.7088 34.918 25.0013 34.918C27.2108 34.918 29.3148 34.6429 30.8924 34.141C31.6772 33.8913 32.3771 33.5713 32.8962 33.1664C33.4133 32.7631 33.8424 32.1977 33.8424 31.4709V18.5252ZM32.3424 29.1988C31.9029 29.445 31.3895 29.6527 30.8369 29.8265C29.2445 30.3272 27.1421 30.6027 25.0013 30.6027C22.7088 30.6027 20.6022 30.2941 19.0428 29.7743C18.5335 29.6045 18.0646 29.4063 17.6602 29.178V31.4709C17.6602 31.515 17.6863 31.6764 18.0102 31.9317C18.3257 32.1803 18.8287 32.437 19.5172 32.6665C20.8862 33.1228 22.8251 33.418 25.0013 33.418C27.107 33.418 29.0485 33.1536 30.4376 32.7116C31.1362 32.4893 31.65 32.2361 31.9737 31.9837C32.2995 31.7295 32.3424 31.5532 32.3424 31.4709V29.1988Z" fill="white"/>
<defs>
<linearGradient id="paint0_linear_1_4360" x1="-7.1875" y1="59.0625" x2="42.1875" y2="7.8125" gradientUnits="userSpaceOnUse">
<stop stop-color="#F0B536" stop-opacity="0.12"/>
<stop offset="0.998045" stop-color="#F0B536"/>
</linearGradient>
<radialGradient id="paint1_angular_1_4360" cx="0" cy="0" r="1" gradientUnits="userSpaceOnUse" gradientTransform="translate(25 25) rotate(90) scale(25)">
<stop offset="0.137987" stop-color="#EFC978"/>
<stop offset="0.3625" stop-color="#F0B536"/>
<stop offset="0.636415" stop-color="#EFC978"/>
<stop offset="0.851755" stop-color="#F0B536"/>
</radialGradient>
</defs>
</svg>
