<svg width="0" height="0">
<symbol fill="none" xmlns="http://www.w3.org/2000/svg" viewBox="0 0 26 16" id="arrow">
    <path d="M25.3536 4.35355C25.5488 4.15829 25.5488 3.84171 25.3536 3.64645L22.1716 0.464466C21.9763 0.269204 21.6597 0.269204 21.4645 0.464466C21.2692 0.659728 21.2692 0.976311 21.4645 1.17157L24.2929 4L21.4645 6.82843C21.2692 7.02369 21.2692 7.34027 21.4645 7.53553C21.6597 7.7308 21.9763 7.7308 22.1716 7.53553L25.3536 4.35355ZM1 4.5L25 4.5V3.5L1 3.5L1 4.5Z" fill="white"></path>
    <path d="M0.646446 11.6464C0.451185 11.8417 0.451185 12.1583 0.646446 12.3536L3.82843 15.5355C4.02369 15.7308 4.34027 15.7308 4.53553 15.5355C4.7308 15.3403 4.7308 15.0237 4.53553 14.8284L1.70711 12L4.53553 9.17157C4.7308 8.97631 4.7308 8.65973 4.53553 8.46447C4.34027 8.2692 4.02369 8.2692 3.82843 8.46447L0.646446 11.6464ZM25 11.5L1 11.5V12.5L25 12.5V11.5Z" fill="white"></path>
  </symbol>
   <symbol fill="none" xmlns="http://www.w3.org/2000/svg" viewBox="0 0 22 22" id="wallet">
    <path d="M3.38764 20.2631L3.77951 19.6236L3.38764 20.2631ZM1.73694 18.6124L2.37642 18.2205H2.37642L1.73694 18.6124ZM20.2632 18.6124L19.6237 18.2205L20.2632 18.6124ZM18.6125 20.2631L18.2206 19.6236L18.6125 20.2631ZM18.6125 4.73677L18.2206 5.37625L18.6125 4.73677ZM20.2632 6.38747L19.6237 6.77934L20.2632 6.38747ZM3.38764 4.73677L3.77951 5.37625L3.38764 4.73677ZM1.73694 6.38747L2.37642 6.77934H2.37642L1.73694 6.38747ZM17.4768 1.54645L18.0181 1.02727V1.02727L17.4768 1.54645ZM2.84436 1.89078L3.2972 2.48864V2.48864L2.84436 1.89078ZM1.85459 2.92265L2.46991 3.35147L1.85459 2.92265ZM18 4.1303H18.75L18.75 4.12659L18 4.1303ZM17.3637 12.6136C17.7779 12.6136 18.1137 12.2778 18.1137 11.8636C18.1137 11.4494 17.7779 11.1136 17.3637 11.1136V12.6136ZM14.6364 11.1136C14.2222 11.1136 13.8864 11.4494 13.8864 11.8636C13.8864 12.2778 14.2222 12.6136 14.6364 12.6136V11.1136ZM9.50009 4.74998H12.5001V3.24998H9.50009V4.74998ZM12.5001 20.2498H9.50009V21.7498H12.5001V20.2498ZM9.50009 20.2498C7.84886 20.2498 6.66311 20.2491 5.7382 20.1611C4.82446 20.0742 4.24303 19.9076 3.77951 19.6236L2.99577 20.9025C3.73458 21.3553 4.57268 21.5571 5.59622 21.6544C6.6086 21.7506 7.87791 21.7498 9.50009 21.7498V20.2498ZM0.25015 12.4999C0.25015 14.1221 0.249359 15.3914 0.345617 16.4038C0.442936 17.4273 0.644716 18.2654 1.09746 19.0042L2.37642 18.2205C2.09238 17.757 1.92576 17.1755 1.83888 16.2618C1.75094 15.3369 1.75015 14.1511 1.75015 12.4999H0.25015ZM3.77951 19.6236C3.20766 19.2731 2.72686 18.7923 2.37642 18.2205L1.09746 19.0042C1.57158 19.7779 2.22208 20.4284 2.99577 20.9025L3.77951 19.6236ZM12.5001 21.7498C14.1222 21.7498 15.3915 21.7506 16.4039 21.6544C17.4275 21.5571 18.2656 21.3553 19.0044 20.9025L18.2206 19.6236C17.7571 19.9076 17.1757 20.0742 16.2619 20.1611C15.337 20.2491 14.1513 20.2498 12.5001 20.2498V21.7498ZM19.6237 18.2205C19.2733 18.7923 18.7925 19.2731 18.2206 19.6236L19.0044 20.9025C19.7781 20.4284 20.4286 19.7779 20.9027 19.0042L19.6237 18.2205ZM18.2206 5.37625C18.7925 5.72668 19.2733 6.20748 19.6237 6.77934L20.9027 5.99559C20.4286 5.2219 19.7781 4.57141 19.0044 4.09729L18.2206 5.37625ZM9.50009 3.24998C7.87791 3.24998 6.6086 3.24919 5.59622 3.34544C4.57268 3.44276 3.73458 3.64454 2.99577 4.09729L3.77951 5.37625C4.24303 5.09221 4.82446 4.92559 5.7382 4.83871C6.66311 4.75077 7.84886 4.74998 9.50009 4.74998V3.24998ZM1.75015 12.4999C1.75015 10.8487 1.75094 9.66294 1.83888 8.73803C1.92576 7.82429 2.09238 7.24286 2.37642 6.77934L1.09746 5.99559C0.644717 6.73441 0.442936 7.57251 0.345617 8.59605C0.249359 9.60843 0.25015 10.8777 0.25015 12.4999H1.75015ZM2.99577 4.09729C2.22208 4.57141 1.57158 5.2219 1.09746 5.99559L2.37642 6.77934C2.72686 6.20748 3.20766 5.72669 3.77951 5.37625L2.99577 4.09729ZM9.05316 1.75H14.4218V0.25H9.05316V1.75ZM14.4218 1.75C15.2875 1.75 15.8582 1.75173 16.2814 1.81105C16.6797 1.86687 16.8346 1.96039 16.9355 2.06562L18.0181 1.02727C17.5949 0.58606 17.0659 0.40635 16.4896 0.325566C15.9381 0.248272 15.2434 0.25 14.4218 0.25V1.75ZM9.05316 0.25C7.39297 0.25 6.08505 0.248882 5.0474 0.366087C3.99379 0.485094 3.12982 0.733697 2.39151 1.29293L3.2972 2.48864C3.73493 2.15709 4.29777 1.9603 5.21576 1.85661C6.1497 1.75112 7.35817 1.75 9.05316 1.75V0.25ZM1.75015 9.39557C1.75015 7.63058 1.7511 6.36464 1.85294 5.38469C1.9535 4.41702 2.14564 3.81677 2.46991 3.35147L1.23927 2.49384C0.709096 3.2546 0.474019 4.14185 0.360973 5.22964C0.249202 6.30516 0.25015 7.66265 0.25015 9.39557H1.75015ZM2.39151 1.29293C1.9482 1.62871 1.55959 2.0342 1.23927 2.49384L2.46991 3.35147C2.70149 3.01917 2.98089 2.72822 3.2972 2.48864L2.39151 1.29293ZM18.75 4.12659C18.7467 3.44994 18.7322 2.86356 18.6475 2.37746C18.5594 1.87227 18.3854 1.41025 18.0181 1.02727L16.9355 2.06562C17.0289 2.16294 17.1131 2.30987 17.1698 2.63505C17.2298 2.9793 17.2466 3.44471 17.25 4.13401L18.75 4.12659ZM0.25015 9.39557C0.25015 10.3712 0.22999 11.2641 0.250407 12.0202L1.74986 11.9797C1.7301 11.2481 1.75015 10.424 1.75015 9.39557H0.25015ZM20.5 13.8408H14.6364V15.3408H20.5V13.8408ZM11.1592 11.8636C11.1592 13.784 12.716 15.3408 14.6364 15.3408V13.8408C13.5444 13.8408 12.6592 12.9556 12.6592 11.8636H11.1592ZM12.6592 11.8636C12.6592 10.7716 13.5444 9.88632 14.6364 9.88632V8.38632C12.716 8.38632 11.1592 9.94314 11.1592 11.8636H12.6592ZM17.3637 11.1136H14.6364V12.6136H17.3637V11.1136ZM12.5001 4.74998C13.8847 4.74998 14.945 4.7503 15.8035 4.80328C16.6613 4.85621 17.261 4.95939 17.7337 5.13892L18.2663 3.73664C17.5862 3.47837 16.8119 3.36265 15.8959 3.30613C14.9807 3.24966 13.8674 3.24998 12.5001 3.24998V4.74998ZM17.7337 5.13892C17.9108 5.20616 18.071 5.28457 18.2206 5.37625L19.0044 4.09729C18.7709 3.95424 18.5261 3.83531 18.2663 3.73664L17.7337 5.13892ZM17.25 4.1303V4.43778H18.75V4.1303H17.25ZM14.6364 9.88632H20.9444V8.38632H14.6364V9.88632ZM21.75 12.4999C21.75 11.1255 21.7503 10.0076 21.6929 9.08953L20.1959 9.1831C20.2497 10.0439 20.25 11.108 20.25 12.4999H21.75ZM21.6929 9.08953C21.6145 7.83471 21.4247 6.84744 20.9027 5.99559L19.6237 6.77934C19.9526 7.31605 20.1224 8.00702 20.1959 9.1831L21.6929 9.08953ZM20.25 12.4999C20.25 13.2874 20.25 13.9721 20.2399 14.5784L21.7397 14.6033C21.75 13.982 21.75 13.2839 21.75 12.4999H20.25ZM20.2399 14.5784C20.2074 16.5369 20.0634 17.503 19.6237 18.2205L20.9027 19.0042C21.5829 17.8943 21.7077 16.5311 21.7397 14.6033L20.2399 14.5784ZM20.5 15.3408H20.9898V13.8408H20.5V15.3408Z" fill="#BCBCBC"></path>
  </symbol>
  <symbol fill="none" xmlns="http://www.w3.org/2000/svg" viewBox="0 0 30 31" id="logout">
    <path d="M12.3333 28V27.25V28ZM11 28V28.75V28ZM3 20H3.75H3ZM3 12H2.25H3ZM11 4V3.25V4ZM12.3333 4V4.75V4ZM3.08208 9.62377L2.34131 9.50644L2.34131 9.50644L3.08208 9.62377ZM8.62377 4.08208L8.7411 4.82284L8.62377 4.08208ZM8.62377 27.9179L8.50644 28.6587H8.50644L8.62377 27.9179ZM3.08208 22.3762L2.34131 22.4936H2.34131L3.08208 22.3762ZM16.7838 27.2668C17.115 27.0181 17.1818 26.5479 16.933 26.2167C16.6842 25.8855 16.2141 25.8187 15.8829 26.0675L16.7838 27.2668ZM15.8829 5.93252C16.2141 6.18129 16.6842 6.11447 16.933 5.78328C17.1818 5.45209 17.115 4.98194 16.7838 4.73317L15.8829 5.93252ZM8.33333 15.25C7.91912 15.25 7.58333 15.5858 7.58333 16C7.58333 16.4142 7.91912 16.75 8.33333 16.75V15.25ZM25.6667 16V16.75V16ZM22.1326 10.079C21.8081 9.82164 21.3363 9.87613 21.079 10.2007C20.8216 10.5253 20.8761 10.997 21.2007 11.2544L22.1326 10.079ZM24.0173 12.5305L24.4833 11.9428L24.0173 12.5305ZM24.0173 19.4695L24.4833 20.0572L24.0173 19.4695ZM21.2007 20.7456C20.8761 21.003 20.8216 21.4747 21.079 21.7993C21.3363 22.1239 21.8081 22.1784 22.1326 21.921L21.2007 20.7456ZM26.9735 15.6658L27.7141 15.5478L27.7141 15.5478L26.9735 15.6658ZM26.9735 16.3342L27.7141 16.4522L27.7141 16.4522L26.9735 16.3342ZM27 16H27.75H27ZM12.3333 27.25H11V28.75H12.3333V27.25ZM3.75 20L3.75 12H2.25L2.25 20H3.75ZM11 4.75L12.3333 4.75V3.25L11 3.25V4.75ZM3.75 12C3.75 10.7327 3.75233 10.1863 3.82284 9.74109L2.34131 9.50644C2.24767 10.0977 2.25 10.79 2.25 12H3.75ZM11 3.25C9.78999 3.25 9.09766 3.24767 8.50644 3.34131L8.7411 4.82284C9.18632 4.75233 9.73267 4.75 11 4.75V3.25ZM3.82284 9.7411C4.22383 7.2094 6.2094 5.22383 8.7411 4.82284L8.50644 3.34131C5.33291 3.84395 2.84395 6.33291 2.34131 9.50644L3.82284 9.7411ZM11 27.25C9.73267 27.25 9.18632 27.2477 8.74109 27.1772L8.50644 28.6587C9.09766 28.7523 9.78999 28.75 11 28.75V27.25ZM2.25 20C2.25 21.21 2.24767 21.9023 2.34131 22.4936L3.82284 22.2589C3.75233 21.8137 3.75 21.2673 3.75 20H2.25ZM8.7411 27.1772C6.2094 26.7762 4.22382 24.7906 3.82284 22.2589L2.34131 22.4936C2.84395 25.6671 5.33291 28.1561 8.50644 28.6587L8.7411 27.1772ZM12.3333 28.75C14.0021 28.75 15.5441 28.198 16.7838 27.2668L15.8829 26.0675C14.8941 26.8102 13.6662 27.25 12.3333 27.25V28.75ZM12.3333 4.75C13.6662 4.75 14.8941 5.18981 15.8829 5.93252L16.7838 4.73317C15.5441 3.80205 14.0021 3.25 12.3333 3.25V4.75ZM8.33333 16.75L25.6667 16.75V15.25L8.33333 15.25V16.75ZM21.2007 11.2544L23.5513 13.1181L24.4833 11.9428L22.1326 10.079L21.2007 11.2544ZM23.5513 18.8819L21.2007 20.7456L22.1326 21.921L24.4833 20.0572L23.5513 18.8819ZM23.5513 13.1181C24.503 13.8727 25.1655 14.3995 25.6149 14.8472C26.061 15.2915 26.1979 15.5644 26.2328 15.7838L27.7141 15.5478C27.6048 14.8614 27.2009 14.3098 26.6735 13.7845C26.1496 13.2625 25.4062 12.6746 24.4833 11.9428L23.5513 13.1181ZM24.4833 20.0572C25.4062 19.3254 26.1496 18.7375 26.6735 18.2155C27.2009 17.6902 27.6048 17.1386 27.7141 16.4522L26.2328 16.2162C26.1979 16.4356 26.061 16.7085 25.6149 17.1528C25.1655 17.6005 24.503 18.1273 23.5513 18.8819L24.4833 20.0572ZM26.2328 15.7838C26.2443 15.8559 26.25 15.928 26.25 16L27.75 16C27.75 15.8487 27.738 15.6976 27.7141 15.5478L26.2328 15.7838ZM26.25 16C26.25 16.072 26.2443 16.1441 26.2328 16.2162L27.7141 16.4522C27.738 16.3024 27.75 16.1513 27.75 16L26.25 16ZM25.6667 16.75H27V15.25H25.6667V16.75Z" fill="#BCBCBC"></path>
  </symbol>
  <symbol fill="none" xmlns="http://www.w3.org/2000/svg" viewBox="0 0 27 27" id="notification">
    <path d="M9.20497 22.2105L9.70265 23.0767C11.9422 26.9744 16.4214 26.9744 18.6609 23.0767L19.1586 22.2105M4.45562 19.1153L4.58421 19.3844C5.41008 21.1129 7.13607 22.2105 9.02839 22.2105H19.2568C20.8784 22.2105 22.3876 21.3695 23.2582 19.9806C24.4872 18.0201 24.1617 15.4482 22.4844 13.8668L22.4298 13.8153C21.291 12.7416 20.7304 11.1774 20.9231 9.61177L21.0035 8.9588C21.4585 5.26374 18.6205 2 14.9526 2H12.8338C9.17032 2 6.33584 5.25976 6.79024 8.95032L6.88898 9.75223C7.0708 11.229 6.53946 12.7041 5.46212 13.7134C3.99057 15.092 3.58173 17.2863 4.45562 19.1153Z" stroke="#BCBCBC" stroke-width="1.5" stroke-linecap="round"></path>
  </symbol>
  <symbol fill="none" xmlns="http://www.w3.org/2000/svg" viewBox="0 0 27 27" id="search">
    <path d="M21.959 19.8984C21.6661 19.6055 21.1913 19.6055 20.8984 19.8984C20.6055 20.1913 20.6055 20.6661 20.8983 20.959L21.959 19.8984ZM25.4697 25.5304C25.7626 25.8233 26.2374 25.8233 26.5303 25.5304C26.8232 25.2375 26.8232 24.7627 26.5303 24.4698L25.4697 25.5304ZM20.8983 20.959L25.4697 25.5304L26.5303 24.4698L21.959 19.8984L20.8983 20.959ZM12.2857 20.8215C7.01929 20.8215 2.75 16.5522 2.75 11.2857H1.25C1.25 17.3806 6.19087 22.3215 12.2857 22.3215V20.8215ZM21.8215 11.2857C21.8215 16.5522 17.5522 20.8215 12.2857 20.8215V22.3215C18.3806 22.3215 23.3215 17.3806 23.3215 11.2857H21.8215ZM12.2857 1.75C17.5522 1.75 21.8215 6.01929 21.8215 11.2857H23.3215C23.3215 5.19087 18.3806 0.25 12.2857 0.25V1.75ZM12.2857 0.25C6.19087 0.25 1.25 5.19087 1.25 11.2857H2.75C2.75 6.01929 7.01929 1.75 12.2857 1.75V0.25Z" fill="#BCBCBC"></path>
  </symbol>
    <symbol fill="none" xmlns="http://www.w3.org/2000/svg" viewBox="0 0 8 13" id="topArrow">
    <path d="M4.35355 0.646446C4.15829 0.451184 3.84171 0.451184 3.64645 0.646446L0.464466 3.82843C0.269204 4.02369 0.269204 4.34027 0.464466 4.53553C0.659728 4.7308 0.976311 4.7308 1.17157 4.53553L4 1.70711L6.82843 4.53553C7.02369 4.7308 7.34027 4.7308 7.53553 4.53553C7.7308 4.34027 7.7308 4.02369 7.53553 3.82843L4.35355 0.646446ZM4.5 13L4.5 1H3.5L3.5 13H4.5Z" fill="#64D121"></path>
  </symbol>
  <symbol fill="none" xmlns="http://www.w3.org/2000/svg" viewBox="0 0 20 20" id="setting">
    <path fill-rule="evenodd" clip-rule="evenodd" d="M7.60505 1.36559C7.8912 1.28638 8.19359 1.41943 8.32852 1.68391C8.6394 2.29327 9.27182 2.70835 10.0001 2.70835C10.7283 2.70835 11.3608 2.29327 11.6716 1.68391C11.8066 1.41943 12.109 1.28638 12.3951 1.36559C13.7988 1.75416 15.0633 2.47535 16.0988 3.43814C16.301 3.62616 16.3558 3.92458 16.2337 4.17223C16.111 4.42114 16.0417 4.7016 16.0417 5.00001C16.0417 6.03554 16.8812 6.87501 17.9167 6.87501L17.9429 6.87483C18.2192 6.87088 18.4653 7.04884 18.5481 7.31247C18.8148 8.16166 18.9584 9.06466 18.9584 10C18.9584 10.6174 18.8959 11.2208 18.7766 11.804C18.7124 12.1176 18.4217 12.3321 18.1031 12.3008C18.0421 12.2948 17.9799 12.2917 17.9167 12.2917C16.8812 12.2917 16.0417 13.1311 16.0417 14.1667C16.0417 14.6276 16.2073 15.0483 16.4828 15.3749C16.6892 15.6195 16.6774 15.9806 16.4555 16.2113C15.3982 17.3099 14.0622 18.1398 12.5602 18.587C12.234 18.6841 11.8901 18.5025 11.7865 18.1783C11.5446 17.4216 10.8354 16.875 10.0001 16.875C9.16478 16.875 8.45554 17.4216 8.21365 18.1783C8.11004 18.5025 7.76614 18.6841 7.43999 18.587C5.93796 18.1398 4.60199 17.3099 3.54469 16.2113C3.32271 15.9806 3.31091 15.6195 3.51735 15.3748C3.79291 15.0483 3.95841 14.6276 3.95841 14.1667C3.95841 13.1311 3.11895 12.2917 2.08341 12.2917C2.02027 12.2917 1.95811 12.2948 1.89703 12.3008C1.57846 12.3321 1.28774 12.1176 1.22359 11.804C1.10429 11.2208 1.04175 10.6174 1.04175 10C1.04175 9.06467 1.18531 8.16166 1.45205 7.31247C1.53486 7.04884 1.78095 6.87088 2.05725 6.87483L2.08341 6.87501C3.11895 6.87501 3.95841 6.03554 3.95841 5.00001C3.95841 4.7016 3.88915 4.42114 3.76643 4.17223C3.64433 3.92458 3.6992 3.62616 3.90141 3.43814C4.93684 2.47535 6.20136 1.75416 7.60505 1.36559ZM5.06905 4.07494C5.15968 4.36771 5.20842 4.67855 5.20842 5.00001C5.20842 6.57456 4.04392 7.87712 2.52919 8.09346C2.37423 8.70266 2.29175 9.34132 2.29175 10C2.29175 10.3578 2.31609 10.7097 2.36314 11.054C3.95798 11.1955 5.20842 12.5351 5.20842 14.1667C5.20842 14.7225 5.06291 15.2451 4.80818 15.6977C5.52213 16.3487 6.35843 16.867 7.2781 17.2142C7.8143 16.2658 8.83178 15.625 10.0001 15.625C11.1684 15.625 12.1859 16.2658 12.7221 17.2142C13.6417 16.867 14.478 16.3487 15.192 15.6977C14.9373 15.2451 14.7917 14.7225 14.7917 14.1667C14.7917 12.5351 16.0422 11.1955 17.637 11.054C17.6841 10.7097 17.7084 10.3578 17.7084 10C17.7084 9.34132 17.6259 8.70267 17.471 8.09346C15.9562 7.87712 14.7917 6.57455 14.7917 5.00001C14.7917 4.67855 14.8405 4.36771 14.9311 4.07494C14.2182 3.48093 13.3969 3.01347 12.5016 2.70647C11.9321 3.46582 11.024 3.95835 10.0001 3.95835C8.97619 3.95835 8.06807 3.46582 7.49858 2.70647C6.60326 3.01346 5.78194 3.48093 5.06905 4.07494Z" fill="white"></path>
    <path fill-rule="evenodd" clip-rule="evenodd" d="M6.45825 10C6.45825 8.044 8.04391 6.45834 9.99992 6.45834C11.9559 6.45834 13.5416 8.044 13.5416 10C13.5416 11.956 11.9559 13.5417 9.99992 13.5417C8.04391 13.5417 6.45825 11.956 6.45825 10ZM9.99992 7.70834C8.73426 7.70834 7.70825 8.73435 7.70825 10C7.70825 11.2657 8.73426 12.2917 9.99992 12.2917C11.2656 12.2917 12.2916 11.2657 12.2916 10C12.2916 8.73435 11.2656 7.70834 9.99992 7.70834Z" fill="white"></path>
  </symbol>
  <symbol fill="none" xmlns="http://www.w3.org/2000/svg" viewBox="0 0 20 20" id="copy">
    <path d="M2.08325 17.0833V8.75001C2.08325 8.28976 2.45635 7.91667 2.91659 7.91667H7.91658H11.2499C11.7102 7.91667 12.0833 8.28976 12.0833 8.75001V12.0833V17.0833C12.0833 17.5436 11.7102 17.9167 11.2499 17.9167H2.91659C2.45635 17.9167 2.08325 17.5436 2.08325 17.0833Z" fill="transperent"></path>
    <path fill-rule="evenodd" clip-rule="evenodd" d="M2.91659 8.54167C2.80152 8.54167 2.70825 8.63494 2.70825 8.75001V17.0833C2.70825 17.1984 2.80152 17.2917 2.91659 17.2917H11.2499C11.365 17.2917 11.4583 17.1984 11.4583 17.0833V8.75001C11.4583 8.63493 11.365 8.54167 11.2499 8.54167H2.91659ZM1.45825 8.75001C1.45825 7.94457 2.11118 7.29167 2.91659 7.29167H11.2499C12.0553 7.29167 12.7083 7.94458 12.7083 8.75001V17.0833C12.7083 17.8888 12.0553 18.5417 11.2499 18.5417H2.91659C2.11118 18.5417 1.45825 17.8888 1.45825 17.0833V8.75001Z" fill="white"></path>
    <path fill-rule="evenodd" clip-rule="evenodd" d="M8.75008 2.70833C8.63502 2.70833 8.54175 2.8016 8.54175 2.91666V7.08333C8.54175 7.1984 8.63501 7.29166 8.75008 7.29166H11.2501C12.0555 7.29166 12.7084 7.94457 12.7084 8.74999V11.25C12.7084 11.3651 12.8017 11.4583 12.9167 11.4583H17.0834C17.1985 11.4583 17.2917 11.3651 17.2917 11.25V2.91666C17.2917 2.8016 17.1985 2.70833 17.0834 2.70833H8.75008ZM7.29175 2.91666C7.29175 2.11125 7.94465 1.45833 8.75008 1.45833H17.0834C17.8888 1.45833 18.5417 2.11125 18.5417 2.91666V11.25C18.5417 12.0554 17.8888 12.7083 17.0834 12.7083H12.9167C12.1113 12.7083 11.4584 12.0554 11.4584 11.25V8.74999C11.4584 8.63492 11.3652 8.54166 11.2501 8.54166H8.75008C7.94465 8.54166 7.29175 7.88876 7.29175 7.08333V2.91666Z" fill="white"></path>
  </symbol>
  <symbol fill="none" xmlns="http://www.w3.org/2000/svg" viewBox="0 0 20 21" id="share">
    <path d="M3.70339 17.9837L4.13572 17.3709H4.13572L3.70339 17.9837ZM2.7892 17.0961L2.1887 17.5454L2.7892 17.0961ZM16.087 17.0961L15.4865 16.6467L15.4865 16.6467L16.087 17.0961ZM15.1728 17.9837L14.7405 17.3709H14.7405L15.1728 17.9837ZM3.70339 5.07192L3.27105 4.45907L3.27105 4.45907L3.70339 5.07192ZM2.7892 5.95957L2.1887 5.51024H2.1887L2.7892 5.95957ZM11.0823 5.06136C11.4965 5.06618 11.8362 4.73433 11.841 4.32014C11.8458 3.90596 11.5139 3.56629 11.0998 3.56146L11.0823 5.06136ZM17.6202 9.91363C17.6151 9.49945 17.2752 9.16783 16.861 9.17294C16.4468 9.17806 16.1152 9.51796 16.1203 9.93214L17.6202 9.91363ZM8.53197 10.8688C8.2348 11.1573 8.22781 11.6321 8.51635 11.9293C8.8049 12.2265 9.27972 12.2335 9.5769 11.9449L8.53197 10.8688ZM13.1419 1.01057C12.7277 1.01236 12.3934 1.3496 12.3952 1.76381C12.397 2.17802 12.7342 2.51235 13.1484 2.51055L13.1419 1.01057ZM15.1966 1.75167L15.1998 2.50167L15.1966 1.75167ZM18.9983 5.44301L18.2483 5.43956L18.9983 5.44301ZM18.2391 7.4314C18.2372 7.84561 18.5715 8.18293 18.9857 8.18483C19.3999 8.18674 19.7372 7.8525 19.7391 7.43829L18.2391 7.4314ZM18.21 2.16148L18.6605 1.56189L18.6605 1.56189L18.21 2.16148ZM18.5762 2.51707L19.1627 2.04961V2.04961L18.5762 2.51707ZM18.3864 2.34579L17.9349 1.74695L17.8975 1.77512L17.8639 1.8077L18.3864 2.34579ZM9.43811 18C7.87239 18 6.7566 17.999 5.89443 17.9083C5.04504 17.819 4.53066 17.6495 4.13572 17.3709L3.27105 18.5966C3.96235 19.0842 4.76584 19.2979 5.7375 19.4001C6.69639 19.501 7.90485 19.5 9.43811 19.5V18ZM1.25 11.5278C1.25 13.0151 1.24891 14.1927 1.35328 15.128C1.45936 16.0787 1.68186 16.868 2.1887 17.5454L3.3897 16.6467C3.10733 16.2694 2.93524 15.7791 2.84402 14.9616C2.75109 14.1288 2.75 13.0495 2.75 11.5278H1.25ZM4.13572 17.3709C3.8486 17.1683 3.59701 16.9238 3.3897 16.6467L2.1887 17.5454C2.49114 17.9496 2.85656 18.3042 3.27105 18.5966L4.13572 17.3709ZM16.1262 11.5278C16.1262 13.0495 16.1251 14.1288 16.0322 14.9616C15.941 15.7791 15.7689 16.2694 15.4865 16.6467L16.6875 17.5454C17.1944 16.868 17.4169 16.0787 17.523 15.128C17.6273 14.1927 17.6262 13.0151 17.6262 11.5278H16.1262ZM9.43811 19.5C10.9714 19.5 12.1798 19.501 13.1387 19.4001C14.1104 19.2979 14.9139 19.0842 15.6052 18.5966L14.7405 17.3709C14.3456 17.6495 13.8312 17.819 12.9818 17.9083C12.1196 17.999 11.0038 18 9.43811 18V19.5ZM15.4865 16.6467C15.2792 16.9238 15.0276 17.1683 14.7405 17.3709L15.6052 18.5966C16.0197 18.3042 16.3851 17.9496 16.6875 17.5454L15.4865 16.6467ZM9.43811 3.55563C7.90485 3.55563 6.69639 3.55466 5.7375 3.65553C4.76584 3.75775 3.96235 3.97139 3.27105 4.45907L4.13573 5.68477C4.53066 5.40616 5.04504 5.23666 5.89443 5.1473C6.7566 5.0566 7.87239 5.05563 9.43811 5.05563V3.55563ZM2.75 11.5278C2.75 10.0061 2.75109 8.92685 2.84402 8.09399C2.93524 7.27651 3.10733 6.78626 3.3897 6.4089L2.1887 5.51024C1.68186 6.18758 1.45936 6.97694 1.35328 7.92765C1.24891 8.86298 1.25 10.0405 1.25 11.5278H2.75ZM3.27105 4.45907C2.85656 4.75147 2.49114 5.10604 2.1887 5.51024L3.3897 6.4089C3.59701 6.13185 3.8486 5.88732 4.13573 5.68477L3.27105 4.45907ZM9.43811 5.05563C10.0471 5.05563 10.5907 5.05564 11.0823 5.06136L11.0998 3.56146C10.5977 3.55562 10.0448 3.55563 9.43811 3.55563V5.05563ZM17.6262 11.5278C17.6262 10.9388 17.6262 10.4016 17.6202 9.91363L16.1203 9.93214C16.1262 10.409 16.1262 10.9364 16.1262 11.5278H17.6262ZM13.1484 2.51055L15.1998 2.50167L15.1933 1.00168L13.1419 1.01057L13.1484 2.51055ZM18.2483 5.43956L18.2391 7.4314L19.7391 7.43829L19.7483 5.44646L18.2483 5.43956ZM15.1998 2.50167C16.0349 2.49805 16.5997 2.49667 17.0279 2.54207C17.4424 2.58603 17.6333 2.66624 17.7595 2.76107L18.6605 1.56189C18.2272 1.23628 17.7294 1.10805 17.186 1.05044C16.6563 0.99427 15.9942 0.99821 15.1933 1.00168L15.1998 2.50167ZM19.7483 5.44646C19.7518 4.67039 19.756 4.02308 19.6977 3.50427C19.6374 2.96886 19.5026 2.47607 19.1627 2.04961L17.9897 2.98453C18.0828 3.10134 18.1627 3.27729 18.2071 3.67192C18.2533 4.08316 18.252 4.62719 18.2483 5.43956L19.7483 5.44646ZM9.5769 11.9449L18.9089 2.88387L17.8639 1.8077L8.53197 10.8688L9.5769 11.9449ZM17.7594 2.76107C17.8034 2.79407 17.8449 2.82963 17.8837 2.86748L18.9304 1.79298C18.8456 1.71038 18.7554 1.6332 18.6605 1.56189L17.7594 2.76107ZM17.8837 2.86748C17.9216 2.90439 17.957 2.94348 17.9897 2.98453L19.1627 2.04961C19.0907 1.95922 19.013 1.87353 18.9304 1.79298L17.8837 2.86748ZM18.8379 2.94462L18.8586 2.92906L17.9555 1.73139L17.9349 1.74695L18.8379 2.94462Z" fill="white"></path>
  </symbol>
  <symbol fill="none" xmlns="http://www.w3.org/2000/svg" viewBox="0 0 24 24" id="danger">
    <path d="M12.0001 7V13M12.0001 21C7.45289 21 5.17931 21 3.86498 20.0451C2.71857 19.2122 1.97942 17.9319 1.8313 16.5226C1.66148 14.9069 2.79827 12.938 5.07186 9C7.34544 5.06204 8.48223 3.09306 9.96638 2.43227C11.2609 1.85591 12.7392 1.85591 14.0337 2.43227C15.5179 3.09306 16.6547 5.06204 18.9283 9C21.2018 12.938 22.3386 14.9069 22.1688 16.5226C22.0207 17.9319 21.2816 19.2122 20.1351 20.0451C18.8208 21 16.5472 21 12.0001 21Z" stroke="white" stroke-width="1.5" stroke-linecap="round"></path>
    <path d="M13 16C13 16.5523 12.5523 17 12 17C11.4477 17 11 16.5523 11 16C11 15.4477 11.4477 15 12 15C12.5523 15 13 15.4477 13 16Z" fill="white"></path>
  </symbol>
  <symbol fill="none" xmlns="http://www.w3.org/2000/svg" viewBox="0 0 24 24" id="snow">
    <path fill-rule="evenodd" clip-rule="evenodd" d="M12 1.25C12.4142 1.25 12.75 1.58579 12.75 2V22C12.75 22.4142 12.4142 22.75 12 22.75C11.5858 22.75 11.25 22.4142 11.25 22V2C11.25 1.58579 11.5858 1.25 12 1.25Z" fill="white"></path>
    <path fill-rule="evenodd" clip-rule="evenodd" d="M2.71267 6.625C2.91977 6.26628 3.37847 6.14338 3.73719 6.35048L21.0577 16.3505C21.4164 16.5576 21.5393 17.0163 21.3322 17.375C21.1251 17.7337 20.6664 17.8566 20.3077 17.6495L2.98719 7.64952C2.62847 7.44242 2.50556 6.98372 2.71267 6.625Z" fill="white"></path>
    <path fill-rule="evenodd" clip-rule="evenodd" d="M21.2901 6.63639C21.4972 6.99511 21.3743 7.4538 21.0156 7.66091L3.7345 17.6382C3.37578 17.8453 2.91709 17.7224 2.70998 17.3636C2.50287 17.0049 2.62578 16.5462 2.9845 16.3391L20.2656 6.36187C20.6243 6.15476 21.083 6.27767 21.2901 6.63639Z" fill="white"></path>
    <path fill-rule="evenodd" clip-rule="evenodd" d="M5.76275 4.28848C6.1557 4.15749 6.58044 4.36986 6.71143 4.76282L8.21143 9.26282C8.27858 9.46426 8.25719 9.68473 8.15257 9.86951C8.04795 10.0543 7.8699 10.1861 7.66261 10.2321L3.16261 11.2321C2.75826 11.322 2.35763 11.067 2.26778 10.6627C2.17792 10.2583 2.43287 9.85771 2.83722 9.76785L6.52543 8.94825L5.2884 5.23716C5.15742 4.8442 5.36979 4.41946 5.76275 4.28848Z" fill="white"></path>
    <path fill-rule="evenodd" clip-rule="evenodd" d="M2.26778 13.3373C2.35763 12.933 2.75826 12.678 3.16261 12.7679L7.66261 13.7679C7.8699 13.8139 8.04795 13.9457 8.15257 14.1305C8.25719 14.3153 8.27858 14.5357 8.21143 14.7372L6.71143 19.2372C6.58044 19.6301 6.1557 19.8425 5.76275 19.7115C5.36979 19.5805 5.15742 19.1558 5.2884 18.7628L6.52543 15.0518L2.83722 14.2321C2.43287 14.1423 2.17792 13.7417 2.26778 13.3373Z" fill="white"></path>
    <path fill-rule="evenodd" clip-rule="evenodd" d="M18.2372 4.28848C18.6301 4.41946 18.8425 4.8442 18.7115 5.23716L17.4745 8.94825L21.1627 9.76785C21.567 9.85771 21.822 10.2583 21.7321 10.6627C21.6423 11.067 21.2417 11.322 20.8373 11.2321L16.3373 10.2321C16.13 10.1861 15.952 10.0543 15.8474 9.86951C15.7427 9.68473 15.7213 9.46426 15.7885 9.26282L17.2885 4.76282C17.4195 4.36986 17.8442 4.15749 18.2372 4.28848Z" fill="white"></path>
    <path fill-rule="evenodd" clip-rule="evenodd" d="M21.7321 13.3373C21.822 13.7417 21.567 14.1423 21.1627 14.2321L17.4745 15.0518L18.7115 18.7628C18.8425 19.1558 18.6301 19.5805 18.2372 19.7115C17.8442 19.8425 17.4195 19.6301 17.2885 19.2372L15.7885 14.7372C15.7213 14.5357 15.7427 14.3153 15.8474 14.1305C15.952 13.9457 16.13 13.8139 16.3373 13.7679L20.8373 12.7679C21.2417 12.678 21.6423 12.933 21.7321 13.3373Z" fill="white"></path>
    <path fill-rule="evenodd" clip-rule="evenodd" d="M8.46967 2.96967C8.76256 2.67678 9.23744 2.67678 9.53033 2.96967L12 5.43934L14.4697 2.96967C14.7626 2.67678 15.2374 2.67678 15.5303 2.96967C15.8232 3.26256 15.8232 3.73744 15.5303 4.03033L12.5303 7.03033C12.2374 7.32322 11.7626 7.32322 11.4697 7.03033L8.46967 4.03033C8.17678 3.73744 8.17678 3.26256 8.46967 2.96967Z" fill="white"></path>
    <path fill-rule="evenodd" clip-rule="evenodd" d="M11.4697 16.9697C11.7626 16.6768 12.2374 16.6768 12.5303 16.9697L15.5303 19.9697C15.8232 20.2626 15.8232 20.7374 15.5303 21.0303C15.2374 21.3232 14.7626 21.3232 14.4697 21.0303L12 18.5607L9.53033 21.0303C9.23744 21.3232 8.76256 21.3232 8.46967 21.0303C8.17678 20.7374 8.17678 20.2626 8.46967 19.9697L11.4697 16.9697Z" fill="white"></path>
  </symbol>
  <symbol fill="none" xmlns="http://www.w3.org/2000/svg" viewBox="0 0 24 24" id="money">
    <path d="M14.5371 19.8523C15.2641 20.2646 16.1046 20.5 17 20.5C19.7614 20.5 22 18.2614 22 15.5C22 12.7386 19.7614 10.5 17 10.5M14.5371 19.8523C13.2572 19.1265 12.329 17.8523 12.0718 16.3491M14.5371 19.8523C13.2058 20.2548 11.4388 20.5 9.5 20.5C5.35785 20.5 2 19.3807 2 18V14M12.0718 16.3491C12.0246 16.0731 12 15.7894 12 15.5C12 14.2162 12.4839 13.0453 13.2793 12.1599M12.0718 16.3491C11.2697 16.4467 10.4035 16.5 9.5 16.5C5.35785 16.5 2 15.3807 2 14M13.2793 12.1599C14.1946 11.1409 15.5224 10.5 17 10.5M13.2793 12.1599C12.1695 12.3761 10.8781 12.5 9.5 12.5C5.35785 12.5 2 11.3807 2 10M17 10.5V6M17 6C17 7.3807 13.6421 8.5 9.5 8.5C5.35785 8.5 2 7.3807 2 6M17 6C17 4.61929 13.6421 3.5 9.5 3.5C5.35785 3.5 2 4.61929 2 6M2 14V10M2 10V6M18.5 17L17 15.5M17 15.5L18.5 14M17 15.5L15.5 14M17 15.5L15.5 17" stroke="white" stroke-width="1.5" stroke-linecap="round" stroke-linejoin="round"></path>
  </symbol>
  <symbol fill="none" xmlns="http://www.w3.org/2000/svg" viewBox="0 0 22 21" id="gift">
    <path d="M5.08658 19.5657L4.78803 20.2537L5.08658 19.5657ZM2.3806 16.7309L1.68314 17.0067L2.3806 16.7309ZM19.6194 16.7309L20.3169 17.0067L19.6194 16.7309ZM16.9134 19.5657L17.212 20.2537L16.9134 19.5657ZM2 9.46448L2.74706 9.53085L2.78376 9.11773L2.45337 8.86702L2 9.46448ZM18.5 4.96446V4.21446H18.5L18.5 4.96446ZM11.7678 3.85355L12.2981 4.38388L11.7678 3.85355ZM13.8891 1.73223L14.4194 2.26256L13.8891 1.73223ZM17.4246 1.73223L16.8943 2.26256L17.4246 1.73223ZM17.6835 4.96445L17.6835 5.71445L18.0663 5.71442L18.2909 5.40446L17.6835 4.96445ZM10.3891 3.85357L9.85877 4.3839L10.3891 3.85357ZM8.26778 1.73225L7.73745 2.26258L8.26778 1.73225ZM4.73225 1.73225L5.26258 2.26258L4.73225 1.73225ZM11 18.9645H11.75H11ZM1.96752 9.43983L1.50739 10.0321L1.96752 9.43983ZM19.9354 9.51158L19.5043 8.89787L19.9354 9.51158ZM9.5 19.2145C8.3244 19.2145 7.48204 19.214 6.81769 19.1665C6.1608 19.1196 5.73463 19.0294 5.38514 18.8777L4.78803 20.2537C5.3574 20.5008 5.97308 20.61 6.71075 20.6627C7.44097 20.7149 8.34589 20.7145 9.5 20.7145V19.2145ZM1.25003 12.1073C1.25003 13.3179 1.24965 14.2616 1.29918 15.0221C1.3491 15.7887 1.45201 16.4221 1.68314 17.0067L3.07806 16.4551C2.92859 16.0771 2.84122 15.619 2.79601 14.9246C2.75039 14.2242 2.75003 13.3375 2.75003 12.1073H1.25003ZM5.38514 18.8777C4.34904 18.4281 3.51518 17.5607 3.07806 16.4551L1.68314 17.0067C2.26097 18.4681 3.37384 19.6401 4.78803 20.2537L5.38514 18.8777ZM19.25 12.1073C19.25 13.3374 19.2496 14.2242 19.204 14.9246C19.1588 15.619 19.0714 16.0771 18.9219 16.4551L20.3169 17.0067C20.548 16.4221 20.6509 15.7887 20.7008 15.0221C20.7504 14.2616 20.75 13.3178 20.75 12.1073H19.25ZM12.5 20.7145C13.6541 20.7145 14.559 20.7149 15.2893 20.6627C16.0269 20.61 16.6426 20.5008 17.212 20.2537L16.6149 18.8777C16.2654 19.0294 15.8392 19.1196 15.1823 19.1665C14.518 19.214 13.6756 19.2145 12.5 19.2145V20.7145ZM18.9219 16.4551C18.4848 17.5607 17.651 18.4281 16.6149 18.8777L17.212 20.2537C18.6262 19.6401 19.739 18.4681 20.3169 17.0067L18.9219 16.4551ZM2.75003 12.1073C2.75003 10.6341 2.68176 10.2657 2.74706 9.53085L1.25294 9.3981C1.18076 10.2105 1.25003 10.8214 1.25003 12.1073H2.75003ZM18.5 5.71446C19.4665 5.71446 20.25 6.49796 20.25 7.46446H21.75C21.75 5.66954 20.2949 4.21446 18.5 4.21446V5.71446ZM3.5 4.21446C1.70507 4.21446 0.25 5.66954 0.25 7.46446H1.75C1.75 6.49796 2.5335 5.71446 3.5 5.71446V4.21446ZM12.2981 4.38388L14.4194 2.26256L13.3588 1.2019L11.2374 3.32322L12.2981 4.38388ZM14.4194 2.26256C15.1028 1.57915 16.2109 1.57915 16.8943 2.26256L17.955 1.2019C16.6857 -0.067301 14.628 -0.067301 13.3588 1.2019L14.4194 2.26256ZM11.2374 3.32322C10.9239 3.63678 10.4446 4.14706 10.2762 4.76812L11.7238 5.16083C11.7761 4.96806 11.9726 4.70934 12.2981 4.38388L11.2374 3.32322ZM16.8943 2.26256C17.5102 2.87851 17.5714 3.84078 17.0761 4.52443L18.2909 5.40446C19.2117 4.13337 19.1003 2.34725 17.955 1.2019L16.8943 2.26256ZM10.9194 3.32324L8.79811 1.20192L7.73745 2.26258L9.85877 4.3839L10.9194 3.32324ZM8.79811 1.20192C7.52891 -0.0672877 5.47112 -0.0672877 4.20192 1.20192L5.26258 2.26258C5.94599 1.57916 7.05403 1.57916 7.73745 2.26258L8.79811 1.20192ZM9.85877 4.3839C10.0598 4.58497 10.189 4.83942 10.2762 5.16083L11.7238 4.76812C11.5903 4.2757 11.3574 3.76118 10.9194 3.32324L9.85877 4.3839ZM4.20192 1.20192C3.05657 2.34726 2.94516 4.13339 3.86601 5.40447L5.08074 4.52445C4.58546 3.8408 4.64663 2.87853 5.26258 2.26258L4.20192 1.20192ZM10.25 4.96448L10.25 18.9645H11.75L11.75 4.96448H10.25ZM4.47338 5.71446L11 5.71448L11 4.21448L4.47338 4.21446L4.47338 5.71446ZM3.5 9.21446C3.09497 9.21446 2.72397 9.07778 2.42766 8.84757L1.50739 10.0321C2.05758 10.4595 2.75007 10.7145 3.5 10.7145V9.21446ZM2.42766 8.84757C2.01395 8.52615 1.75 8.02631 1.75 7.46446H0.25C0.25 8.50907 0.74367 9.43875 1.50739 10.0321L2.42766 8.84757ZM2.45337 8.86702L2.42089 8.84238L1.51415 10.0373L1.54663 10.0619L2.45337 8.86702ZM12.5 19.2145H11V20.7145H12.5V19.2145ZM11 19.2145H9.5V20.7145H11V19.2145ZM10.25 18.9645L10.25 19.9645H11.75L11.75 18.9645H10.25ZM18.5 9.21446H11V10.7145H18.5V9.21446ZM11 9.21446H3.5V10.7145H11V9.21446ZM20.25 7.46446C20.25 8.05643 19.9568 8.58 19.5043 8.89787L20.3665 10.1253C21.2017 9.53862 21.75 8.56562 21.75 7.46446H20.25ZM19.5043 8.89787C19.2202 9.09743 18.8749 9.21446 18.5 9.21446V10.7145C19.1934 10.7145 19.8381 10.4965 20.3665 10.1253L19.5043 8.89787ZM20.75 12.1073C20.75 10.7624 20.7505 10.2318 20.6826 9.44695L19.1882 9.57621C19.2495 10.2851 19.25 10.7495 19.25 12.1073H20.75ZM11 5.71448L17.4246 5.71446L17.4246 4.21446L11 4.21448L11 5.71448ZM17.4247 5.71446L17.6835 5.71445L17.6834 4.21445L17.4246 4.21446L17.4247 5.71446ZM17.4246 5.71446L18.5 5.71446L18.5 4.21446L17.4246 4.21446L17.4246 5.71446ZM4.47338 4.21446H3.5V5.71446H4.47338V4.21446ZM3.5 5.71446L7.25 5.71447L7.25 4.21447L3.5 4.21446L3.5 5.71446ZM7.25 5.71447L11 5.71448L11 4.21448L7.25 4.21447L7.25 5.71447ZM4.47337 5.71446L7.25 5.71447L7.25 4.21447L4.47338 4.21446L4.47337 5.71446ZM11 5.71448L17.6835 5.71445L17.6835 4.21445L11 4.21448L11 5.71448Z" fill="white"></path>
  </symbol>
  <symbol fill="none" xmlns="http://www.w3.org/2000/svg" viewBox="0 0 24 24" id="tg">
    <g filter="url(#filter0_d_180_11275)">
      <path d="M13.82 1.62445L2.85864 5.53922L5.99046 7.10513L10.6882 3.97331L7.55637 7.88809L12.2541 11.0199L13.82 1.62445Z" fill="white"></path>
    </g>
    <defs>
      <filter id="filter0_d_180_11275" x="0.858643" y="1.62445" width="22.9614" height="21.3954" filterUnits="userSpaceOnUse" color-interpolation-filters="sRGB">
        <feFlood flood-opacity="0" result="BackgroundImageFix"></feFlood>
        <feColorMatrix in="SourceAlpha" type="matrix" values="0 0 0 0 0 0 0 0 0 0 0 0 0 0 0 0 0 0 127 0" result="hardAlpha"></feColorMatrix>
        <feOffset dx="4" dy="6"></feOffset>
        <feGaussianBlur stdDeviation="3"></feGaussianBlur>
        <feComposite in2="hardAlpha" operator="out"></feComposite>
        <feColorMatrix type="matrix" values="0 0 0 0 0 0 0 0 0 0 0 0 0 0 0 0 0 0 0.25 0"></feColorMatrix>
        <feBlend mode="normal" in2="BackgroundImageFix" result="effect1_dropShadow_180_11275"></feBlend>
        <feBlend mode="normal" in="SourceGraphic" in2="effect1_dropShadow_180_11275" result="shape"></feBlend>
      </filter>
    </defs>
  </symbol>
  <symbol fill="none" xmlns="http://www.w3.org/2000/svg" viewBox="0 0 24 24" id="vk">
    <g filter="url(#filter0_d_180_11287)">
      <path fill-rule="evenodd" clip-rule="evenodd" d="M3.13538 1.13538C2.3396 1.93117 2.3396 3.21196 2.3396 5.77356V6.22639C2.3396 8.788 2.3396 10.0688 3.13538 10.8646C3.93117 11.6604 5.21196 11.6604 7.77356 11.6604H8.22639C10.788 11.6604 12.0688 11.6604 12.8646 10.8646C13.6604 10.0688 13.6604 8.788 13.6604 6.22639V5.77356C13.6604 3.21196 13.6604 1.93117 12.8646 1.13538C12.0688 0.3396 10.788 0.3396 8.22639 0.3396H7.77356C5.21196 0.3396 3.93117 0.3396 3.13538 1.13538ZM4.25001 3.78302C4.31133 6.72642 5.78302 8.49528 8.36321 8.49528H8.50946V6.81132C9.45757 6.90566 10.1745 7.59906 10.4622 8.49528H11.8019C11.434 7.15566 10.4669 6.41509 9.86316 6.13208C10.4669 5.78302 11.316 4.93396 11.5188 3.78302H10.3018C10.0377 4.71698 9.25474 5.56604 8.50946 5.64623V3.78302H7.29243V7.04717C6.53771 6.85849 5.58491 5.9434 5.54245 3.78302H4.25001Z" fill="white"></path>
    </g>
    <defs>
      <filter id="filter0_d_180_11287" x="0.3396" y="0.3396" width="23.3208" height="23.3207" filterUnits="userSpaceOnUse" color-interpolation-filters="sRGB">
        <feFlood flood-opacity="0" result="BackgroundImageFix"></feFlood>
        <feColorMatrix in="SourceAlpha" type="matrix" values="0 0 0 0 0 0 0 0 0 0 0 0 0 0 0 0 0 0 127 0" result="hardAlpha"></feColorMatrix>
        <feOffset dx="4" dy="6"></feOffset>
        <feGaussianBlur stdDeviation="3"></feGaussianBlur>
        <feComposite in2="hardAlpha" operator="out"></feComposite>
        <feColorMatrix type="matrix" values="0 0 0 0 0 0 0 0 0 0 0 0 0 0 0 0 0 0 0.25 0"></feColorMatrix>
        <feBlend mode="normal" in2="BackgroundImageFix" result="effect1_dropShadow_180_11287"></feBlend>
        <feBlend mode="normal" in="SourceGraphic" in2="effect1_dropShadow_180_11287" result="shape"></feBlend>
      </filter>
    </defs>
  </symbol>
   <symbol fill="none" xmlns="http://www.w3.org/2000/svg" viewBox="0 0 23 21" id="Twitter">
    <g filter="url(#filter0_d_180_11299)">
      <path d="M12.0817 1.00101C11.7145 1.16406 11.3201 1.27378 10.9062 1.32327C11.329 1.07006 11.6531 0.669152 11.8058 0.191127C11.4107 0.425536 10.9725 0.595875 10.506 0.68795C10.1327 0.290108 9.60101 0.0415039 9.01249 0.0415039C7.88226 0.0415039 6.96611 0.958039 6.96611 2.08788C6.96611 2.24825 6.98453 2.40477 7.01906 2.55401C5.31834 2.46884 3.81061 1.65398 2.80085 0.415561C2.62514 0.717875 2.52424 1.0693 2.52424 1.44489C2.52424 2.15464 2.88525 2.78113 3.43425 3.1479C3.09894 3.13716 2.7832 3.04508 2.50736 2.89201C2.50736 2.90083 2.50736 2.90889 2.50736 2.91771C2.50736 3.90944 3.2125 4.73659 4.14899 4.92419C3.9775 4.97099 3.79641 4.99593 3.60958 4.99593C3.47799 4.99593 3.34946 4.98289 3.22478 4.95949C3.48528 5.77243 4.24106 6.3644 5.1365 6.3809C4.43634 6.9299 3.55395 7.25715 2.59483 7.25715C2.42986 7.25715 2.26681 7.24756 2.10645 7.22838C3.01224 7.80884 4.0876 8.1476 5.24353 8.1476C9.00789 8.1476 11.0658 5.02931 11.0658 2.32498C11.0658 2.23635 11.0639 2.14811 11.06 2.06026C11.4602 1.77137 11.8074 1.41113 12.0817 1.00101Z" fill="white"></path>
    </g>
    <defs>
      <filter id="filter0_d_180_11299" x="0.106445" y="0.0415039" width="21.9753" height="20.1061" filterUnits="userSpaceOnUse" color-interpolation-filters="sRGB">
        <feFlood flood-opacity="0" result="BackgroundImageFix"></feFlood>
        <feColorMatrix in="SourceAlpha" type="matrix" values="0 0 0 0 0 0 0 0 0 0 0 0 0 0 0 0 0 0 127 0" result="hardAlpha"></feColorMatrix>
        <feOffset dx="4" dy="6"></feOffset>
        <feGaussianBlur stdDeviation="3"></feGaussianBlur>
        <feComposite in2="hardAlpha" operator="out"></feComposite>
        <feColorMatrix type="matrix" values="0 0 0 0 0 0 0 0 0 0 0 0 0 0 0 0 0 0 0.25 0"></feColorMatrix>
        <feBlend mode="normal" in2="BackgroundImageFix" result="effect1_dropShadow_180_11299"></feBlend>
        <feBlend mode="normal" in="SourceGraphic" in2="effect1_dropShadow_180_11299" result="shape"></feBlend>
      </filter>
    </defs>
  </symbol>
  <symbol fill="none" xmlns="http://www.w3.org/2000/svg" viewBox="0 0 24 22" id="Youtube">
    <g filter="url(#filter0_d_180_11305)">
      <path d="M13.5476 3.73584C13.5476 3.73584 13.437 2.95532 13.0965 2.6126C12.6654 2.16154 12.1834 2.15933 11.9622 2.1328C10.3791 2.01782 8.00219 2.01782 8.00219 2.01782H7.99777C7.99777 2.01782 5.62085 2.01782 4.03771 2.1328C3.8166 2.15933 3.33459 2.16154 2.90343 2.6126C2.56292 2.95532 2.45458 3.73584 2.45458 3.73584C2.45458 3.73584 2.3396 4.65344 2.3396 5.56882V6.42672C2.3396 7.34211 2.45236 8.25971 2.45236 8.25971C2.45236 8.25971 2.56292 9.04023 2.90122 9.38295C3.33238 9.83401 3.89841 9.81853 4.15048 9.86717C5.05702 9.95341 7.99998 9.97994 7.99998 9.97994C7.99998 9.97994 10.3791 9.97552 11.9622 9.86275C12.1834 9.83622 12.6654 9.83401 13.0965 9.38295C13.437 9.04023 13.5476 8.25971 13.5476 8.25971C13.5476 8.25971 13.6604 7.34433 13.6604 6.42672V5.56882C13.6604 4.65344 13.5476 3.73584 13.5476 3.73584ZM6.83031 7.46815V4.2864L9.88824 5.8828L6.83031 7.46815Z" fill="white"></path>
    </g>
    <defs>
      <filter id="filter0_d_180_11305" x="0.3396" y="2.01782" width="23.3208" height="19.9622" filterUnits="userSpaceOnUse" color-interpolation-filters="sRGB">
        <feFlood flood-opacity="0" result="BackgroundImageFix"></feFlood>
        <feColorMatrix in="SourceAlpha" type="matrix" values="0 0 0 0 0 0 0 0 0 0 0 0 0 0 0 0 0 0 127 0" result="hardAlpha"></feColorMatrix>
        <feOffset dx="4" dy="6"></feOffset>
        <feGaussianBlur stdDeviation="3"></feGaussianBlur>
        <feComposite in2="hardAlpha" operator="out"></feComposite>
        <feColorMatrix type="matrix" values="0 0 0 0 0 0 0 0 0 0 0 0 0 0 0 0 0 0 0.25 0"></feColorMatrix>
        <feBlend mode="normal" in2="BackgroundImageFix" result="effect1_dropShadow_180_11305"></feBlend>
        <feBlend mode="normal" in="SourceGraphic" in2="effect1_dropShadow_180_11305" result="shape"></feBlend>
      </filter>
    </defs>
  </symbol>
  <symbol fill="none" xmlns="http://www.w3.org/2000/svg" viewBox="0 0 24 24" id="Instagram">
    <g filter="url(#filter0_d_180_11293)">
      <path d="M9.49902 6C7.56952 6 6 7.57098 6 9.50098V14.501C6 16.4305 7.57098 18 9.50098 18H14.501C16.4305 18 18 16.429 18 14.499V9.49902C18 7.56952 16.429 6 14.499 6H9.49902ZM15.5 8C15.776 8 16 8.224 16 8.5C16 8.776 15.776 9 15.5 9C15.224 9 15 8.776 15 8.5C15 8.224 15.224 8 15.5 8ZM12 9C13.6545 9 15 10.3455 15 12C15 13.6545 13.6545 15 12 15C10.3455 15 9 13.6545 9 12C9 10.3455 10.3455 9 12 9ZM12 10C11.4696 10 10.9609 10.2107 10.5858 10.5858C10.2107 10.9609 10 11.4696 10 12C10 12.5304 10.2107 13.0391 10.5858 13.4142C10.9609 13.7893 11.4696 14 12 14C12.5304 14 13.0391 13.7893 13.4142 13.4142C13.7893 13.0391 14 12.5304 14 12C14 11.4696 13.7893 10.9609 13.4142 10.5858C13.0391 10.2107 12.5304 10 12 10Z" fill="white"></path>
    </g>
    <defs>
      <filter id="filter0_d_180_11293" x="0" y="0" width="24" height="24" filterUnits="userSpaceOnUse" color-interpolation-filters="sRGB">
        <feFlood flood-opacity="0" result="BackgroundImageFix"></feFlood>
        <feColorMatrix in="SourceAlpha" type="matrix" values="0 0 0 0 0 0 0 0 0 0 0 0 0 0 0 0 0 0 127 0" result="hardAlpha"></feColorMatrix>
        <feOffset></feOffset>
        <feGaussianBlur stdDeviation="3"></feGaussianBlur>
        <feComposite in2="hardAlpha" operator="out"></feComposite>
        <feColorMatrix type="matrix" values="0 0 0 0 0 0 0 0 0 0 0 0 0 0 0 0 0 0 0.25 0"></feColorMatrix>
        <feBlend mode="normal" in2="BackgroundImageFix" result="effect1_dropShadow_180_11293"></feBlend>
        <feBlend mode="normal" in="SourceGraphic" in2="effect1_dropShadow_180_11293" result="shape"></feBlend>
      </filter>
    </defs>
  </symbol>
  <symbol fill="none" xmlns="http://www.w3.org/2000/svg" viewBox="0 0 4 20" id="dots">
    <circle cx="2" cy="18" r="2" fill="#BCBCBC"></circle>
    <circle cx="2" cy="10" r="2" fill="#BCBCBC"></circle>
    <circle cx="2" cy="2" r="2" fill="#BCBCBC"></circle>
  </symbol>
  <symbol fill="none" xmlns="http://www.w3.org/2000/svg" viewBox="0 0 24 24" id="filter">
    <path d="M3 6.47246C3 4.55467 4.55467 3 6.47246 3H17.5842C19.4707 3 21 4.52929 21 6.41577C21 7.42052 20.5576 8.37431 19.7906 9.02332L16.2703 12.0021C15.1475 12.9521 14.5 14.3482 14.5 15.819V17.5996C14.5 18.4795 14.079 19.3062 13.3675 19.8237L11.4262 21.2355C10.4165 21.9698 9 21.2485 9 20V15.6995C9 14.298 8.41177 12.9608 7.37862 12.0137L4.12603 9.0322C3.40852 8.37448 3 7.44581 3 6.47246Z" stroke="white" stroke-width="1.5"></path>
  </symbol>
  <symbol fill="none" xmlns="http://www.w3.org/2000/svg" viewBox="0 0 26 26" id="verify">
    <path d="M19 9.4L14.957 13.9158C13.3549 15.7053 12.5538 16.6 11.5 16.6C10.4462 16.6 9.64511 15.7053 8.043 13.9158L7 12.7508M25 13C25 19.6274 19.6274 25 13 25C6.37258 25 1 19.6274 1 13C1 6.37258 6.37258 1 13 1C19.6274 1 25 6.37258 25 13Z" stroke="#64D121" stroke-width="1.5" stroke-linecap="round"></path>
  </symbol>
  <symbol fill="none" xmlns="http://www.w3.org/2000/svg" viewBox="0 0 19 19" id="dollar">
    <path d="M8.75 15.45C8.75 15.8642 9.08579 16.2 9.5 16.2C9.91421 16.2 10.25 15.8642 10.25 15.45H8.75ZM10.25 3.55C10.25 3.13579 9.91421 2.8 9.5 2.8C9.08579 2.8 8.75 3.13579 8.75 3.55H10.25ZM11.4746 6.54024C11.6818 6.89896 12.1404 7.02186 12.4992 6.81476C12.8579 6.60765 12.9808 6.14896 12.7737 5.79024L11.4746 6.54024ZM11.8049 5.61231L11.1554 5.98731V5.98732L11.8049 5.61231ZM8.76055 9.22799L9.01948 8.5241L9.01946 8.52409L8.76055 9.22799ZM10.2396 9.77202L10.4985 9.06813L10.4985 9.06812L10.2396 9.77202ZM7.19525 13.3877L6.54573 13.7627L6.54574 13.7627L7.19525 13.3877ZM7.52554 12.4598C7.31844 12.1011 6.85974 11.9781 6.50102 12.1853C6.1423 12.3924 6.0194 12.851 6.2265 13.2098L7.52554 12.4598ZM10.6287 14.3077L10.2537 13.6582L10.6287 14.3077ZM8.37149 4.69233L8.74649 5.34185L8.37149 4.69233ZM17.25 9.5C17.25 13.7802 13.7802 17.25 9.5 17.25V18.75C14.6086 18.75 18.75 14.6086 18.75 9.5H17.25ZM9.5 17.25C5.21979 17.25 1.75 13.7802 1.75 9.5H0.25C0.25 14.6086 4.39137 18.75 9.5 18.75V17.25ZM1.75 9.5C1.75 5.21979 5.21979 1.75 9.5 1.75V0.25C4.39137 0.25 0.25 4.39137 0.25 9.5H1.75ZM9.5 1.75C13.7802 1.75 17.25 5.21979 17.25 9.5H18.75C18.75 4.39137 14.6086 0.25 9.5 0.25V1.75ZM12.7737 5.79024L12.4545 5.23731L11.1554 5.98732L11.4746 6.54024L12.7737 5.79024ZM7.84477 13.0127L7.52554 12.4598L6.2265 13.2098L6.54573 13.7627L7.84477 13.0127ZM9.98073 10.4759C11.3839 10.992 11.5485 12.9106 10.2537 13.6582L11.0037 14.9572C13.3999 13.5738 13.0953 10.0233 10.4985 9.06813L9.98073 10.4759ZM7.99649 4.04281C5.6003 5.42625 5.90486 8.97674 8.50165 9.93188L9.01946 8.52409C7.61625 8.00797 7.45167 6.08941 8.74649 5.34185L7.99649 4.04281ZM10.25 15.45V14.6417H8.75V15.45H10.25ZM10.25 14.6417V9.5H8.75V14.6417H10.25ZM10.2537 13.6582C10.0021 13.8034 9.73162 13.8791 9.46241 13.8926L9.53759 15.3907C10.0388 15.3656 10.5414 15.2241 11.0037 14.9572L10.2537 13.6582ZM9.46241 13.8926C8.82043 13.9248 8.1866 13.6048 7.84477 13.0127L6.54574 13.7627C7.17985 14.861 8.35548 15.4501 9.53759 15.3907L9.46241 13.8926ZM8.50162 9.93187L9.24107 10.2039L9.75893 8.79611L9.01948 8.5241L8.50162 9.93187ZM9.24112 10.2039L9.98076 10.4759L10.4985 9.06812L9.75888 8.7961L9.24112 10.2039ZM10.25 9.5L10.25 4.35833L8.75 4.35833L8.75 9.5H10.25ZM10.25 4.35833V3.55H8.75V4.35833H10.25ZM12.4545 5.23731C11.8203 4.13891 10.6445 3.54986 9.46236 3.60927L9.53764 5.10738C10.1797 5.07512 10.8136 5.39521 11.1554 5.98731L12.4545 5.23731ZM9.46236 3.60927C8.96122 3.63446 8.45875 3.77592 7.99649 4.04281L8.74649 5.34185C8.99806 5.1966 9.26848 5.12091 9.53764 5.10738L9.46236 3.60927Z" fill="#64D121"></path>
  </symbol>
  <symbol fill="none" xmlns="http://www.w3.org/2000/svg" viewBox="0 0 18 18" id="robot">
    <path fill-rule="evenodd" clip-rule="evenodd" d="M4.125 6.9375C4.02145 6.9375 3.9375 7.02145 3.9375 7.125V15.375C3.9375 15.4786 4.02145 15.5625 4.125 15.5625H13.875C13.9786 15.5625 14.0625 15.4786 14.0625 15.375V7.125C14.0625 7.02145 13.9786 6.9375 13.875 6.9375H4.125ZM2.8125 7.125C2.8125 6.40013 3.40013 5.8125 4.125 5.8125H13.875C14.5999 5.8125 15.1875 6.40013 15.1875 7.125V15.375C15.1875 16.0999 14.5999 16.6875 13.875 16.6875H4.125C3.40013 16.6875 2.8125 16.0999 2.8125 15.375V7.125Z" fill="#64D121"></path>
    <path fill-rule="evenodd" clip-rule="evenodd" d="M12.6732 2.898C12.9366 3.06265 13.0167 3.40968 12.8521 3.67312L10.9771 6.67312C10.8124 6.93656 10.4654 7.01665 10.202 6.852C9.93851 6.68735 9.85843 6.34031 10.0231 6.07687L11.8981 3.07687C12.0627 2.81344 12.4098 2.73335 12.6732 2.898Z" fill="#64D121"></path>
    <path fill-rule="evenodd" clip-rule="evenodd" d="M5.32695 2.898C5.59039 2.73335 5.93742 2.81344 6.10207 3.07687L7.97707 6.07687C8.14172 6.34031 8.06164 6.68735 7.7982 6.852C7.53476 7.01665 7.18773 6.93656 7.02308 6.67312L5.14808 3.67312C4.98343 3.40968 5.06351 3.06265 5.32695 2.898Z" fill="#64D121"></path>
    <path fill-rule="evenodd" clip-rule="evenodd" d="M12.75 2.4375C12.6464 2.4375 12.5625 2.52145 12.5625 2.625C12.5625 2.72855 12.6464 2.8125 12.75 2.8125C12.8536 2.8125 12.9375 2.72855 12.9375 2.625C12.9375 2.52145 12.8536 2.4375 12.75 2.4375ZM11.4375 2.625C11.4375 1.90013 12.0251 1.3125 12.75 1.3125C13.4749 1.3125 14.0625 1.90013 14.0625 2.625C14.0625 3.34987 13.4749 3.9375 12.75 3.9375C12.0251 3.9375 11.4375 3.34987 11.4375 2.625Z" fill="#64D121"></path>
    <path fill-rule="evenodd" clip-rule="evenodd" d="M5.25 2.4375C5.14645 2.4375 5.0625 2.52145 5.0625 2.625C5.0625 2.72855 5.14645 2.8125 5.25 2.8125C5.35355 2.8125 5.4375 2.72855 5.4375 2.625C5.4375 2.52145 5.35355 2.4375 5.25 2.4375ZM3.9375 2.625C3.9375 1.90013 4.52513 1.3125 5.25 1.3125C5.97487 1.3125 6.5625 1.90013 6.5625 2.625C6.5625 3.34987 5.97487 3.9375 5.25 3.9375C4.52513 3.9375 3.9375 3.34987 3.9375 2.625Z" fill="#64D121"></path>
    <path d="M10.5 9H7.5C6.67157 9 6 9.67157 6 10.5C6 11.3284 6.67157 12 7.5 12H10.5C11.3284 12 12 11.3284 12 10.5C12 9.67157 11.3284 9 10.5 9Z" fill="#64D121"></path>
    <path fill-rule="evenodd" clip-rule="evenodd" d="M7.5 9.5625C6.98223 9.5625 6.5625 9.98223 6.5625 10.5C6.5625 11.0178 6.98223 11.4375 7.5 11.4375H10.5C11.0178 11.4375 11.4375 11.0178 11.4375 10.5C11.4375 9.98223 11.0178 9.5625 10.5 9.5625H7.5ZM5.4375 10.5C5.4375 9.36091 6.36091 8.4375 7.5 8.4375H10.5C11.6391 8.4375 12.5625 9.36091 12.5625 10.5C12.5625 11.6391 11.6391 12.5625 10.5 12.5625H7.5C6.36091 12.5625 5.4375 11.6391 5.4375 10.5Z" fill="#64D121"></path>
    <path fill-rule="evenodd" clip-rule="evenodd" d="M0.9375 9C0.9375 8.68934 1.18934 8.4375 1.5 8.4375H3.375C3.68566 8.4375 3.9375 8.68934 3.9375 9C3.9375 9.31066 3.68566 9.5625 3.375 9.5625H2.0625V12.1875H3.375C3.68566 12.1875 3.9375 12.4393 3.9375 12.75C3.9375 13.0607 3.68566 13.3125 3.375 13.3125H1.5C1.18934 13.3125 0.9375 13.0607 0.9375 12.75V9Z" fill="#64D121"></path>
    <path fill-rule="evenodd" clip-rule="evenodd" d="M14.0625 9C14.0625 8.68934 14.3143 8.4375 14.625 8.4375H16.5C16.8107 8.4375 17.0625 8.68934 17.0625 9V12.75C17.0625 13.0607 16.8107 13.3125 16.5 13.3125H14.625C14.3143 13.3125 14.0625 13.0607 14.0625 12.75C14.0625 12.4393 14.3143 12.1875 14.625 12.1875H15.9375V9.5625H14.625C14.3143 9.5625 14.0625 9.31066 14.0625 9Z" fill="#64D121"></path>
  </symbol>
  <symbol fill="none" xmlns="http://www.w3.org/2000/svg" viewBox="0 0 30 30" id="download">
    <path d="M7.56106 28.9042L7.44374 29.645H7.44374L7.56106 28.9042ZM1.09576 22.4389L1.83652 22.3216L1.09576 22.4389ZM28.9042 22.4389L29.645 22.5563V22.5563L28.9042 22.4389ZM22.4389 28.9042L22.5563 29.645H22.5563L22.4389 28.9042ZM28.0447 12.994C27.7959 12.6628 27.3258 12.596 26.9946 12.8448C26.6634 13.0935 26.5966 13.5637 26.8453 13.8949L28.0447 12.994ZM3.15466 13.8949C3.40343 13.5637 3.33661 13.0935 3.00542 12.8448C2.67423 12.596 2.20408 12.6628 1.95531 12.994L3.15466 13.8949ZM15.75 1C15.75 0.585786 15.4142 0.25 15 0.25C14.5858 0.25 14.25 0.585786 14.25 1H15.75ZM9.36546 16.0896C9.10811 15.765 8.63638 15.7105 8.31181 15.9679C7.98724 16.2252 7.93275 16.697 8.19009 17.0215L9.36546 16.0896ZM10.9522 19.298L10.3645 19.7639L10.9522 19.298ZM19.0478 19.298L18.4601 18.832L19.0478 19.298ZM21.8099 17.0215C22.0673 16.697 22.0128 16.2252 21.6882 15.9679C21.3636 15.7105 20.8919 15.765 20.6345 16.0896L21.8099 17.0215ZM14.6101 22.7468L14.4921 23.4875H14.4921L14.6101 22.7468ZM15.3899 22.7468L15.5079 23.4875H15.5079L15.3899 22.7468ZM28.25 18.1111V19.6667H29.75V18.1111H28.25ZM19.6667 28.25H10.3333V29.75H19.6667V28.25ZM1.75 19.6667V18.1111H0.25V19.6667H1.75ZM10.3333 28.25C8.85955 28.25 8.20998 28.2477 7.67839 28.1635L7.44374 29.645C8.12132 29.7523 8.91687 29.75 10.3333 29.75V28.25ZM0.25 19.6667C0.25 21.0831 0.247672 21.8787 0.354991 22.5563L1.83652 22.3216C1.75233 21.79 1.75 21.1404 1.75 19.6667H0.25ZM7.67839 28.1635C4.67126 27.6872 2.31281 25.3287 1.83652 22.3216L0.354991 22.5563C0.932932 26.2052 3.79477 29.0671 7.44374 29.645L7.67839 28.1635ZM28.25 19.6667C28.25 21.1404 28.2477 21.79 28.1635 22.3216L29.645 22.5563C29.7523 21.8787 29.75 21.0831 29.75 19.6667H28.25ZM19.6667 29.75C21.0831 29.75 21.8787 29.7523 22.5563 29.645L22.3216 28.1635C21.79 28.2477 21.1404 28.25 19.6667 28.25V29.75ZM28.1635 22.3216C27.6872 25.3287 25.3287 27.6872 22.3216 28.1635L22.5563 29.645C26.2052 29.0671 29.0671 26.2052 29.645 22.5563L28.1635 22.3216ZM29.75 18.1111C29.75 16.1922 29.1153 14.4193 28.0447 12.994L26.8453 13.8949C27.7275 15.0694 28.25 16.5281 28.25 18.1111H29.75ZM1.75 18.1111C1.75 16.5281 2.27246 15.0694 3.15466 13.8949L1.95531 12.994C0.8847 14.4193 0.25 16.1922 0.25 18.1111H1.75ZM14.25 1V21.2222H15.75V1H14.25ZM8.19009 17.0215L10.3645 19.7639L11.5399 18.832L9.36546 16.0896L8.19009 17.0215ZM19.6355 19.7639L21.8099 17.0215L20.6345 16.0896L18.4601 18.832L19.6355 19.7639ZM10.3645 19.7639C11.2202 20.8431 11.901 21.7036 12.5038 22.3087C13.1099 22.9171 13.7302 23.3661 14.4921 23.4875L14.7281 22.0062C14.4332 21.9592 14.0916 21.7772 13.5665 21.2501C13.038 20.7196 12.4183 19.9398 11.5399 18.832L10.3645 19.7639ZM18.4601 18.832C17.5817 19.9398 16.962 20.7196 16.4335 21.2501C15.9084 21.7772 15.5668 21.9592 15.2719 22.0062L15.5079 23.4875C16.2698 23.3661 16.8901 22.9171 17.4962 22.3087C18.099 21.7036 18.7798 20.8431 19.6355 19.7639L18.4601 18.832ZM14.4921 23.4875C14.6604 23.5143 14.8301 23.5278 15 23.5278V22.0278C14.9094 22.0278 14.8187 22.0206 14.7281 22.0062L14.4921 23.4875ZM15 23.5278C15.1699 23.5278 15.3396 23.5143 15.5079 23.4875L15.2719 22.0062C15.1813 22.0206 15.0906 22.0278 15 22.0278V23.5278ZM14.25 21.2222V22.7778H15.75V21.2222H14.25Z" fill="white"></path>
  </symbol>
  <symbol fill="none" xmlns="http://www.w3.org/2000/svg" viewBox="0 0 35 38" id="pdf">
    <path d="M30.1919 11.6891L30.0746 12.4299L30.1919 11.6891ZM22.7107 4.20789L21.9699 4.32522L22.7107 4.20789ZM4.70991 35.2809L5.15075 34.6742L4.70991 35.2809ZM2.71884 33.2899L3.3256 32.849L2.71884 33.2899ZM31.681 33.2899L31.0742 32.849L31.681 33.2899ZM29.6899 35.2809L29.2491 34.6742L29.6899 35.2809ZM29.6899 2.71884L30.1307 2.11207L29.6899 2.71884ZM31.681 4.70991L32.2877 4.26907L31.681 4.70991ZM4.70991 2.71884L5.15075 3.3256L4.70991 2.71884ZM2.71884 4.70991L3.3256 5.15075L2.71884 4.70991ZM22.5999 1.05207L22.6255 0.302511L22.5999 1.05207ZM33.3477 11.7999L34.0973 11.7743L33.3477 11.7999ZM30.3092 10.9484C26.7791 10.3893 24.0106 7.62066 23.4514 4.09057L21.9699 4.32522C22.6307 8.49715 25.9027 11.7691 30.0746 12.4299L30.3092 10.9484ZM32.6498 17.1999V20.7999H34.1498V17.1999H32.6498ZM1.75 20.7999V17.1999H0.25V20.7999H1.75ZM17.1999 36.2498C13.8085 36.2498 11.3251 36.2488 9.3918 36.0393C7.47252 35.8314 6.18448 35.4252 5.15075 34.6742L4.26907 35.8877C5.60112 36.8555 7.18333 37.3088 9.23023 37.5306C11.2631 37.7508 13.8419 37.7498 17.1999 37.7498V36.2498ZM0.25 20.7999C0.25 24.1579 0.248971 26.7367 0.469218 28.7695C0.690986 30.8165 1.14428 32.3987 2.11207 33.7307L3.3256 32.849C2.57455 31.8153 2.16843 30.5273 1.96049 28.608C1.75103 26.6747 1.75 24.1913 1.75 20.7999H0.25ZM5.15075 34.6742C4.45037 34.1653 3.83445 33.5494 3.3256 32.849L2.11207 33.7307C2.71345 34.5584 3.44135 35.2863 4.26907 35.8877L5.15075 34.6742ZM32.6498 20.7999C32.6498 24.1913 32.6488 26.6747 32.4393 28.608C32.2314 30.5273 31.8253 31.8153 31.0742 32.849L32.2877 33.7307C33.2555 32.3987 33.7088 30.8165 33.9306 28.7695C34.1508 26.7367 34.1498 24.1579 34.1498 20.7999H32.6498ZM17.1999 37.7498C20.5579 37.7498 23.1367 37.7508 25.1696 37.5306C27.2165 37.3088 28.7987 36.8555 30.1307 35.8877L29.2491 34.6742C28.2153 35.4252 26.9273 35.8314 25.008 36.0393C23.0747 36.2488 20.5913 36.2498 17.1999 36.2498V37.7498ZM31.0742 32.849C30.5654 33.5494 29.9494 34.1653 29.2491 34.6742L30.1307 35.8877C30.9585 35.2863 31.6864 34.5584 32.2877 33.7307L31.0742 32.849ZM29.2491 3.3256C29.9494 3.83445 30.5654 4.45037 31.0742 5.15075L32.2877 4.26907C31.6864 3.44135 30.9585 2.71345 30.1307 2.11207L29.2491 3.3256ZM17.1999 0.25C13.8419 0.25 11.2631 0.248971 9.23023 0.469218C7.18333 0.690986 5.60112 1.14428 4.26907 2.11207L5.15075 3.3256C6.18448 2.57455 7.47252 2.16843 9.3918 1.96049C11.3251 1.75103 13.8085 1.75 17.1999 1.75V0.25ZM1.75 17.1999C1.75 13.8085 1.75103 11.3251 1.96049 9.3918C2.16843 7.47252 2.57455 6.18448 3.3256 5.15075L2.11207 4.26907C1.14428 5.60112 0.690986 7.18333 0.469218 9.23023C0.248971 11.2631 0.25 13.8419 0.25 17.1999H1.75ZM4.26907 2.11207C3.44135 2.71345 2.71345 3.44135 2.11207 4.26907L3.3256 5.15075C3.83445 4.45037 4.45037 3.83445 5.15075 3.3256L4.26907 2.11207ZM17.1999 1.75C19.3081 1.75 21.07 1.75009 22.5742 1.80163L22.6255 0.302511C21.0902 0.249906 19.2998 0.25 17.1999 0.25V1.75ZM22.5742 1.80163C25.9204 1.91628 27.8198 2.28721 29.2491 3.3256L30.1307 2.11207C28.3034 0.784438 25.9903 0.417792 22.6255 0.302511L22.5742 1.80163ZM21.8499 1.05208C21.8499 2.66215 21.8487 3.56018 21.9699 4.32522L23.4514 4.09057C23.3533 3.47102 23.3499 2.71712 23.3499 1.05207L21.8499 1.05208ZM34.1498 17.1999C34.1498 15.1 34.1499 13.3096 34.0973 11.7743L32.5982 11.8256C32.6497 13.3299 32.6498 15.0917 32.6498 17.1999H34.1498ZM34.0973 11.7743C33.982 8.40948 33.6154 6.09641 32.2877 4.26907L31.0742 5.15075C32.1126 6.57997 32.4835 8.47936 32.5982 11.8256L34.0973 11.7743ZM33.3477 11.0499C31.6827 11.0499 30.9288 11.0465 30.3092 10.9484L30.0746 12.4299C30.8396 12.5511 31.7377 12.5499 33.3477 12.5499L33.3477 11.0499Z" fill="#FF1F00"></path>
  </symbol>
  <symbol fill="none" xmlns="http://www.w3.org/2000/svg" viewBox="0 0 20 20" id="chrew">
    <path fill-rule="evenodd" clip-rule="evenodd" d="M4.97603 7.05806C5.2201 6.81398 5.61583 6.81398 5.85991 7.05806L10.418 11.6161L14.976 7.05806C15.2201 6.81398 15.6158 6.81398 15.8599 7.05806C16.104 7.30214 16.104 7.69786 15.8599 7.94194L10.8599 12.9419C10.6158 13.186 10.2201 13.186 9.97603 12.9419L4.97603 7.94194C4.73195 7.69786 4.73195 7.30214 4.97603 7.05806Z" fill="white"></path>
  </symbol>
   <symbol fill="none" xmlns="http://www.w3.org/2000/svg" viewBox="0 0 24 24" id="close">
    <path d="M5.00781 5L19.0078 19M5.00784 19L12.0078 12L19.0078 5" stroke="white" stroke-width="1.5" stroke-linecap="round"></path>
  </symbol>
  <symbol fill="none" xmlns="http://www.w3.org/2000/svg" viewBox="0 0 22 22" id="errorCircle">
    <g id="Danger Circle">
      <path id="Vector" d="M12 15C12 15.5523 11.5523 16 11 16C10.4477 16 10 15.5523 10 15C10 14.4477 10.4477 14 11 14C11.5523 14 12 14.4477 12 15Z" fill="#FF1F00"></path>
      <path id="Vector_2" d="M11 6V12M21 11C21 16.5228 16.5228 21 11 21C5.47715 21 1 16.5228 1 11C1 5.47715 5.47715 1 11 1C16.5228 1 21 5.47715 21 11Z" stroke="#FF1F00" stroke-width="1.5" stroke-linecap="round"></path>
    </g>
  </symbol>
  <symbol fill="none" xmlns="http://www.w3.org/2000/svg" viewBox="0 0 22 22" id="confirmCircle">
    <g id="Tick Circle">
      <path id="Vector" d="M16 8L12.6308 11.7632C11.2957 13.2544 10.6282 14 9.75 14C8.8718 14 8.20425 13.2544 6.86917 11.7632L6 10.7924M21 11C21 16.5228 16.5228 21 11 21C5.47715 21 1 16.5228 1 11C1 5.47715 5.47715 1 11 1C16.5228 1 21 5.47715 21 11Z" stroke="#64D121" stroke-width="1.5" stroke-linecap="round"></path>
    </g>
  </symbol>
  <symbol fill="none" xmlns="http://www.w3.org/2000/svg" viewBox="0 0 22 22" id="tickCircle">
    <g id="Tick2 Circle">
      <path d="M22 12C22 17.5228 17.5228 22 12 22C6.47715 22 2 17.5228 2 12C2 6.47715 6.47715 2 12 2C17.5228 2 22 6.47715 22 12Z" stroke="white" stroke-width="1.5" stroke-linecap="round"/>
    </g>
  </symbol>
</svg>
