<svg width="36" height="36" viewBox="0 0 36 36" fill="none" xmlns="http://www.w3.org/2000/svg">
<path fill-rule="evenodd" clip-rule="evenodd" d="M16.2904 0.0437087C11.7731 0.513403 7.76593 2.52984 4.67871 5.88675C0.328274 10.6173 -1.1294 17.4712 0.902952 23.6403C1.82425 26.4369 3.28496 28.7777 5.41885 30.8771C8.2457 33.6582 11.6832 35.3258 15.7968 35.9118C16.6332 36.0309 19.3993 36.0289 20.2678 35.9087C24.3973 35.3367 27.952 33.5724 30.8101 30.6764C33.6539 27.7948 35.3202 24.3808 35.9116 20.2235C36.0295 19.3947 36.0295 16.6138 35.9116 15.7851C35.5742 13.4134 34.8819 11.2724 33.8387 9.37405C33.0152 7.8755 32.0535 6.59203 30.8101 5.33216C28.004 2.48884 24.521 0.73173 20.5142 0.138113C19.6505 0.0101037 17.1507 -0.0456932 16.2904 0.0437087ZM26.4262 10.9184C26.7369 11.0484 26.8862 11.347 26.8862 11.8388C26.8862 12.2897 23.9102 26.436 23.7502 26.7456C23.5245 27.1822 23.0427 27.3479 22.547 27.1594C22.382 27.0966 20.7536 25.9233 18.3751 24.1535L17.785 23.7144L16.5049 24.937C15.5723 25.8277 15.1625 26.1732 14.9953 26.2099C14.8691 26.2377 14.7499 26.2445 14.7305 26.2251C14.7111 26.2056 14.7631 25.1802 14.8461 23.9464L14.9971 21.7029L15.4914 21.245C15.7633 20.9931 17.67 19.2639 19.7286 17.4023C21.7871 15.5406 23.4714 13.9713 23.4714 13.915C23.4714 13.8433 23.3964 13.8145 23.2221 13.8191C23.0206 13.8246 21.9757 14.4543 17.7571 17.1127C14.8884 18.9205 12.5048 20.3996 12.4603 20.3996C12.266 20.3996 7.82691 18.9718 7.61624 18.8416C7.16675 18.5636 7.26237 18.1419 7.84951 17.8135C8.00244 17.728 9.12441 17.2733 10.3428 16.8032C11.5611 16.3332 13.857 15.4473 15.4447 14.8348C17.0325 14.2222 19.8682 13.127 21.7464 12.4011C25.8637 10.8098 25.8251 10.824 26.026 10.8208C26.1143 10.8194 26.2944 10.8634 26.4262 10.9184Z" fill="white"/>
</svg>
