<svg width="105" height="103" viewBox="0 0 105 103" fill="none" xmlns="http://www.w3.org/2000/svg">
    <mask id="mask0_52_785" style="mask-type:alpha" maskUnits="userSpaceOnUse" x="0" y="0" width="105" height="103">
        <ellipse cx="52.1765" cy="51.3738" rx="52.1765" ry="51.3738" fill="white"/>
    </mask>
    <g mask="url(#mask0_52_785)">
        <ellipse cx="55.655" cy="54.5847" rx="35.3195" ry="34.2492" fill="white"/>
        <g filter="url(#filter0_i_52_785)">
            <path fill-rule="evenodd" clip-rule="evenodd"
                  d="M47.221 -0.944264C34.1265 0.410256 22.5111 6.22533 13.5622 15.9061C0.951568 29.5482 -3.2738 49.3138 2.61739 67.1044C5.28796 75.1693 9.52211 81.9198 15.7076 87.974C23.9018 95.9943 33.8661 100.803 45.7901 102.493C48.2145 102.837 56.2326 102.831 58.7501 102.484C70.7203 100.835 81.0244 95.7468 89.3092 87.3952C97.5526 79.0852 102.382 69.2397 104.097 57.2507C104.438 54.8607 104.438 46.8412 104.097 44.4512C103.119 37.6117 101.112 31.4374 98.0881 25.9629C95.701 21.6413 92.9135 17.94 89.3092 14.3067C81.1752 6.10708 71.0788 1.03987 59.4644 -0.672019C56.9608 -1.04118 49.7146 -1.20208 47.221 -0.944264ZM76.6014 30.4165C77.5023 30.7914 77.935 31.6524 77.935 33.0709C77.935 34.371 69.3083 75.1667 68.8446 76.0594C68.1905 77.3186 66.7937 77.7965 65.3569 77.2528C64.8787 77.0718 60.1584 73.6882 53.2638 68.5843L51.5533 67.3181L47.8427 70.8437C45.1395 73.4123 43.9516 74.4089 43.4669 74.5147C43.101 74.5948 42.7554 74.6145 42.6993 74.5584C42.643 74.5023 42.7938 71.5452 43.0344 67.9869L43.472 61.5173L44.9049 60.1967C45.693 59.4704 51.22 54.4836 57.1872 49.1149C63.1543 43.7462 68.0364 39.2206 68.0364 39.0581C68.0364 38.8515 67.819 38.7684 67.3139 38.7818C66.7298 38.7976 63.7008 40.6135 51.4725 48.2799C43.1569 53.4932 36.2477 57.7587 36.1187 57.7587C35.5554 57.7587 22.6878 53.6413 22.0772 53.2656C20.7742 52.4639 21.0514 51.2479 22.7533 50.3008C23.1966 50.0541 26.4489 48.7431 29.9805 47.3873C33.5122 46.0318 40.1673 43.4772 44.7696 41.7106C49.372 39.9441 57.5919 36.7858 63.0361 34.6924C74.9711 30.1032 74.8591 30.1443 75.4414 30.1351C75.6975 30.1311 76.2196 30.2579 76.6014 30.4165Z"
                  fill="url(#paint0_linear_52_785)"/>
        </g>
    </g>
    <defs>
        <filter id="filter0_i_52_785" x="0" y="-1.07031" width="108.353" height="107.818" filterUnits="userSpaceOnUse" color-interpolation-filters="sRGB">
            <feFlood flood-opacity="0" result="BackgroundImageFix"/>
            <feBlend mode="normal" in="SourceGraphic" in2="BackgroundImageFix" result="shape"/>
            <feColorMatrix in="SourceAlpha" type="matrix" values="0 0 0 0 0 0 0 0 0 0 0 0 0 0 0 0 0 0 127 0" result="hardAlpha"/>
            <feOffset dx="9" dy="4"/>
            <feGaussianBlur stdDeviation="2"/>
            <feComposite in2="hardAlpha" operator="arithmetic" k2="-1" k3="1"/>
            <feColorMatrix type="matrix" values="0 0 0 0 0 0 0 0 0 0 0 0 0 0 0 0 0 0 0.28 0"/>
            <feBlend mode="normal" in2="shape" result="effect1_innerShadow_52_785"/>
        </filter>
        <linearGradient id="paint0_linear_52_785" x1="0" y1="-1.07031" x2="133.477" y2="7.99655" gradientUnits="userSpaceOnUse">
            <stop stop-color="#F9B130"/>
            <stop offset="1"/>
        </linearGradient>
    </defs>
</svg>
