<svg width="105" height="103" viewBox="0 0 105 103" fill="none" xmlns="http://www.w3.org/2000/svg">
    <mask id="mask0_203_902" style="mask-type:alpha" maskUnits="userSpaceOnUse" x="0" y="0" width="105" height="103">
        <ellipse cx="52.1765" cy="51.3738" rx="52.1765" ry="51.3738" fill="white"/>
    </mask>
    <g mask="url(#mask0_203_902)">
        <ellipse cx="52.5" cy="52" rx="38.5" ry="37" fill="white"/>
        <g filter="url(#filter0_i_203_902)">
            <path fill-rule="evenodd" clip-rule="evenodd"
                  d="M47.3312 0.116108C30.3377 1.75518 15.1594 12.0441 7.46793 27.1384C4.74781 32.4768 3.14059 37.6242 2.26115 43.8139C1.87133 46.5588 1.92789 53.6597 2.36428 56.72C3.13922 62.1546 4.74272 67.3044 7.20022 72.2515C12.0759 82.0662 19.8648 89.8484 29.7068 94.7388C45.6614 102.666 64.5169 101.576 79.3981 91.8661C85.2166 88.0693 90.731 82.4407 94.4956 76.4558C95.9263 74.181 98.0865 69.7589 99.0677 67.0967C100.056 64.4138 101.209 59.7576 101.637 56.72C102.07 53.643 102.129 46.5247 101.743 43.8139C100.588 35.6934 98.0106 28.78 93.7322 22.3234C91.9126 19.5775 90.0954 17.3622 87.5638 14.8035C79.7588 6.91509 70.0499 2.02269 58.9483 0.383812C56.5544 0.0304579 49.8267 -0.124611 47.3312 0.116108ZM55.8045 34.232C56.2282 34.4471 56.7565 34.8721 56.9786 35.1763C57.3673 35.708 57.3831 35.9789 57.3923 42.216C57.4025 49.0733 57.5111 50.0899 58.2913 50.6361C58.8201 51.0061 59.1553 50.8753 60.1858 49.8969C62.4905 47.7092 65.501 42.9644 67.299 38.686C67.8581 37.3553 68.5262 36.0563 68.7834 35.7994C69.4362 35.147 70.3914 35.0666 76.5653 35.1451C81.1546 35.2033 81.927 35.2571 82.4775 35.5567C83.3474 36.0301 83.4589 36.6557 82.9529 38.222C82.3482 40.0942 81.2175 41.903 77.4598 47.0095C73.1457 52.872 72.7667 53.5852 73.3563 54.7285C73.4774 54.9634 75.049 56.6515 76.8488 58.4799C79.9799 61.6607 82.1259 64.2566 82.9354 65.8422C83.656 67.2533 83.2695 68.549 81.9202 69.2463C81.1358 69.6515 77.7721 69.787 73.5138 69.5846C68.773 69.3596 68.5186 69.2321 64.6053 65.1195C61.5285 61.8859 60.8171 61.3153 59.8624 61.3153C58.6763 61.3153 58.3176 62.0516 57.6718 65.8129C57.3152 67.889 57.2352 68.1088 56.6282 68.6744C56.043 69.2197 55.7953 69.3026 54.3773 69.428C49.2055 69.8856 43.6148 68.3591 39.3791 65.3332C35.0507 62.2412 30.4414 56.2728 25.8765 47.8494C23.8356 44.0833 20.6905 37.2953 20.6905 36.6564C20.6905 36.3737 20.873 35.9106 21.0961 35.6273L21.5016 35.112H26.391C29.2757 35.112 31.6281 35.1996 32.1287 35.3255C33.3508 35.6329 34.0347 36.4673 35.0789 38.9252C37.3499 44.2707 41.5235 50.4763 43.1156 50.8757C44.1573 51.1369 44.5943 50.3809 44.9862 47.6388C45.2232 45.9821 45.0667 39.9274 44.758 38.8106C44.5074 37.9034 43.6741 37.1304 42.4911 36.7075C41.9125 36.5006 41.5074 36.2296 41.4675 36.0223C41.3203 35.2591 42.4307 34.2905 43.88 33.918C44.2029 33.8349 46.8447 33.7837 49.7507 33.804C54.6047 33.838 55.097 33.8728 55.8045 34.232Z"
                  fill="url(#paint0_linear_203_902)"/>
        </g>
    </g>
    <defs>
        <filter id="filter0_i_203_902" x="2" y="0" width="104" height="104" filterUnits="userSpaceOnUse" color-interpolation-filters="sRGB">
            <feFlood flood-opacity="0" result="BackgroundImageFix"/>
            <feBlend mode="normal" in="SourceGraphic" in2="BackgroundImageFix" result="shape"/>
            <feColorMatrix in="SourceAlpha" type="matrix" values="0 0 0 0 0 0 0 0 0 0 0 0 0 0 0 0 0 0 127 0" result="hardAlpha"/>
            <feOffset dx="9" dy="4"/>
            <feGaussianBlur stdDeviation="2"/>
            <feComposite in2="hardAlpha" operator="arithmetic" k2="-1" k3="1"/>
            <feColorMatrix type="matrix" values="0 0 0 0 0 0 0 0 0 0 0 0 0 0 0 0 0 0 0.28 0"/>
            <feBlend mode="normal" in2="shape" result="effect1_innerShadow_203_902"/>
        </filter>
        <linearGradient id="paint0_linear_203_902" x1="2" y1="0" x2="129.915" y2="8.64448" gradientUnits="userSpaceOnUse">
            <stop stop-color="#F9B130"/>
            <stop offset="1"/>
        </linearGradient>
    </defs>
</svg>
