<svg width="36" height="36" viewBox="0 0 36 36" fill="none" xmlns="http://www.w3.org/2000/svg">
<path fill-rule="evenodd" clip-rule="evenodd" d="M16.3192 0.0417987C10.2016 0.631866 4.73739 4.33587 1.96846 9.76982C0.989212 11.6917 0.410613 13.5447 0.0940142 15.773C-0.0463205 16.7612 -0.0259607 19.3175 0.131141 20.4192C0.41012 22.3757 0.98738 24.2296 1.87208 26.0105C3.62732 29.5438 6.43134 32.3454 9.97444 34.106C15.7181 36.9599 22.5061 36.5675 27.8633 33.0718C29.958 31.705 31.9432 29.6786 33.2984 27.5241C33.8135 26.7051 34.5911 25.1132 34.9444 24.1548C35.3003 23.189 35.7153 21.5127 35.8692 20.4192C36.0252 19.3115 36.0463 16.7489 35.9074 15.773C35.4916 12.8496 34.5638 10.3608 33.0236 8.03643C32.3685 7.04792 31.7143 6.25039 30.8029 5.32924C27.9932 2.48943 24.498 0.728169 20.5014 0.138172C19.6396 0.0109648 17.2176 -0.04486 16.3192 0.0417987ZM19.3696 12.3235C19.5221 12.401 19.7123 12.5539 19.7923 12.6635C19.9322 12.8549 19.9379 12.9524 19.9412 15.1978C19.9449 17.6664 19.984 18.0324 20.2649 18.229C20.4552 18.3622 20.5759 18.3151 20.9469 17.9629C21.7766 17.1753 22.8604 15.4672 23.5077 13.927C23.7089 13.4479 23.9494 12.9803 24.042 12.8878C24.277 12.6529 24.6209 12.624 26.8435 12.6522C28.4957 12.6732 28.7737 12.6926 28.9719 12.8004C29.2851 12.9708 29.3252 13.196 29.143 13.7599C28.9253 14.4339 28.5183 15.0851 27.1655 16.9234C25.6125 19.0339 25.476 19.2907 25.6883 19.7023C25.7319 19.7868 26.2977 20.3946 26.9456 21.0528C28.0728 22.1978 28.8453 23.1324 29.1368 23.7032C29.3961 24.2112 29.257 24.6776 28.7713 24.9287C28.4889 25.0745 27.278 25.1233 25.745 25.0505C24.0383 24.9694 23.9467 24.9235 22.5379 23.443C21.4303 22.2789 21.1742 22.0735 20.8304 22.0735C20.4035 22.0735 20.2743 22.3386 20.0418 23.6926C19.9135 24.4401 19.8847 24.5192 19.6661 24.7228C19.4555 24.9191 19.3663 24.949 18.8558 24.9941C16.994 25.1588 14.9813 24.6093 13.4565 23.52C11.8983 22.4068 10.2389 20.2582 8.59554 17.2258C7.86082 15.87 6.72857 13.4263 6.72857 13.1963C6.72857 13.0945 6.79429 12.9278 6.87461 12.8258L7.02058 12.6403H8.78075C9.81924 12.6403 10.6661 12.6719 10.8463 12.7172C11.2863 12.8279 11.5325 13.1282 11.9084 14.0131C12.726 15.9374 14.2284 18.1715 14.8016 18.3152C15.1766 18.4093 15.3339 18.1371 15.475 17.15C15.5604 16.5535 15.504 14.3738 15.3929 13.9718C15.3027 13.6452 15.0027 13.367 14.5768 13.2147C14.3685 13.1402 14.2227 13.0426 14.2083 12.968C14.1553 12.6933 14.555 12.3446 15.0768 12.2105C15.193 12.1806 16.1441 12.1621 17.1903 12.1694C18.9377 12.1817 19.1149 12.1942 19.3696 12.3235Z" fill="white"/>
</svg>
