<svg width="36" height="36" viewBox="0 0 36 36" fill="none" xmlns="http://www.w3.org/2000/svg">
<path fill-rule="evenodd" clip-rule="evenodd" d="M16.3192 0.0417987C10.2016 0.631866 4.73739 4.33587 1.96846 9.76982C0.989212 11.6917 0.410613 13.5447 0.0940142 15.773C-0.0463205 16.7612 -0.0259607 19.3175 0.131141 20.4192C0.41012 22.3757 0.98738 24.2296 1.87208 26.0105C3.62732 29.5438 6.43134 32.3454 9.97444 34.106C15.7181 36.9599 22.5061 36.5675 27.8633 33.0718C29.958 31.705 31.9432 29.6786 33.2984 27.5241C33.8135 26.7051 34.5911 25.1132 34.9444 24.1548C35.3003 23.189 35.7153 21.5127 35.8692 20.4192C36.0252 19.3115 36.0463 16.7489 35.9074 15.773C35.4916 12.8496 34.5638 10.3608 33.0236 8.03643C32.3685 7.04792 31.7143 6.25039 30.8029 5.32924C27.9932 2.48943 24.498 0.728169 20.5014 0.138172C19.6396 0.0109648 17.2176 -0.04486 16.3192 0.0417987ZM24.8388 11.3447C26.1599 11.7325 27.1273 12.765 27.4049 14.0835C27.5564 14.8033 27.5564 21.1777 27.4049 21.8975C27.1285 23.2105 26.1544 24.2502 24.8388 24.6363C24.5008 24.7355 23.7036 24.7486 18.0004 24.7486C12.2973 24.7486 11.5001 24.7355 11.1621 24.6363C9.84094 24.2485 8.87353 23.216 8.59596 21.8975C8.44443 21.1777 8.44443 14.8033 8.59596 14.0835C8.86719 12.795 9.73505 11.834 11.026 11.3926L11.4839 11.236L17.97 11.2342C23.7045 11.2326 24.5005 11.2454 24.8388 11.3447ZM15.4643 17.9846C15.4643 19.5753 15.4817 20.8768 15.5029 20.8768C15.5692 20.8768 20.4652 18.0277 20.4629 17.9905C20.4608 17.9559 15.6696 15.1619 15.5336 15.116C15.4888 15.1008 15.4643 16.1183 15.4643 17.9846Z" fill="white"/>
</svg>
