<svg width="52" height="52" viewBox="0 0 52 52" fill="none" xmlns="http://www.w3.org/2000/svg">
<path d="M17.6667 49.6111L25.0908 36.4761C25.4511 35.8387 25.7674 35.279 26.0505 34.7839M26.0505 34.7839C26.928 33.2492 27.4862 32.335 28.0438 31.6489C32.6606 25.9681 40.894 24.8458 46.8628 29.0837C47.81 29.7562 48.8636 30.808 50.9583 32.9028M26.0505 34.7839L24.6111 34.3333C21.2902 33.6692 19.6298 33.3371 18.1058 33.3694C14.0274 33.456 10.1932 35.3312 7.62093 38.4974C6.65976 39.6805 5.90247 41.195 4.38791 44.2242L4.08285 44.8343L3.74652 45.4026M50.9583 32.9028C51 30.8902 51 28.6084 51 26C51 15.5841 51 10.3761 48.3475 6.7252C47.4908 5.54611 46.4539 4.5092 45.2748 3.65254C41.6239 1 36.4159 1 26 1C15.5841 1 10.3761 1 6.7252 3.65254C5.54611 4.5092 4.5092 5.54611 3.65254 6.7252C1 10.3761 1 15.5841 1 26C1 36.4159 1 41.6239 3.65254 45.2748C3.68363 45.3176 3.71496 45.3602 3.74652 45.4026M50.9583 32.9028C50.8336 38.9267 50.3357 42.5382 48.3475 45.2748C47.4908 46.4539 46.4539 47.4908 45.2748 48.3475C41.6239 51 36.4159 51 26 51C15.5841 51 10.3761 51 6.7252 48.3475C5.5889 47.5219 4.58465 46.5289 3.74652 45.4026M17.6667 17.6667C17.6667 20.7349 20.154 23.2222 23.2222 23.2222C26.2905 23.2222 28.7778 20.7349 28.7778 17.6667C28.7778 14.5984 26.2905 12.1111 23.2222 12.1111C20.154 12.1111 17.6667 14.5984 17.6667 17.6667Z" stroke="#BCBCBC" stroke-width="1.5" stroke-linecap="round"/>
</svg>
